<?xml version="1.0" encoding="UTF-8"?>
<svg id="Camada_2" data-name="Camada 2" xmlns="http://www.w3.org/2000/svg" viewBox="0 0 386.77 91.53">
  <defs>
    <style>
      .cls-1 {
        fill: #175b2a;
      }

      .cls-2 {
        fill: #29235c;
      }

      .cls-3 {
        fill: #29255b;
      }

      .cls-4 {
        fill: #29265b;
      }
    </style>
  </defs>
  <g id="Camada_1-2" data-name="Camada 1">
    <path class="cls-1" d="M74.52,29.59c-7.32,4.17-14.2,8.89-20.69,14.11l-6.85,5.83c-3.4,3.05-6.57,6.17-9.66,9.51l-5.06-4.28-8.45-7.14c-.56-.37-.95-.78-1.44-1.19l-2.69-2.27,4.91-4.22,1.7,1.39,7.16,6.01,3.35,2.8c11.12-10.83,23.81-20.13,37.72-27.79v7.23Z"/>
    <g>
      <path class="cls-4" d="M104.16,63.31l-.73-2.39h-3.66l-.73,2.39h-2.3l3.55-10.09h2.6l3.56,10.09h-2.3ZM102.92,59.13l-.73-2.34c-.05-.16-.11-.36-.18-.6-.08-.25-.15-.5-.23-.75-.08-.25-.14-.48-.18-.66-.05.19-.11.42-.19.7-.08.28-.16.54-.23.79s-.13.42-.16.53l-.72,2.34h2.62Z"/>
      <path class="cls-4" d="M114.07,60.52c0,.6-.14,1.11-.43,1.55-.29.44-.71.78-1.26,1.02-.55.24-1.22.36-2.01.36-.35,0-.69-.02-1.02-.07-.33-.05-.65-.11-.96-.2-.3-.09-.59-.2-.87-.33v-1.98c.48.21.97.4,1.48.57.51.17,1.02.25,1.53.25.35,0,.63-.05.84-.14.21-.09.37-.22.46-.38.1-.16.14-.34.14-.55,0-.25-.08-.47-.25-.65s-.4-.35-.7-.5c-.3-.16-.63-.32-1-.5-.23-.11-.49-.24-.76-.4-.27-.16-.54-.35-.78-.58-.25-.23-.45-.51-.61-.84-.16-.33-.24-.72-.24-1.18,0-.6.14-1.11.41-1.54.27-.43.67-.75,1.18-.98.51-.23,1.11-.34,1.81-.34.52,0,1.02.06,1.5.18s.97.3,1.49.53l-.69,1.66c-.46-.19-.88-.33-1.24-.44-.37-.1-.74-.16-1.12-.16-.27,0-.49.04-.68.13-.19.08-.33.2-.43.36-.1.15-.14.33-.14.53,0,.24.07.44.21.6.14.16.35.32.63.47s.63.33,1.05.53c.51.24.95.5,1.32.76.36.26.65.57.84.93.2.35.3.8.3,1.32Z"/>
      <path class="cls-4" d="M122.25,60.52c0,.6-.14,1.11-.43,1.55-.29.44-.71.78-1.26,1.02-.55.24-1.22.36-2.01.36-.35,0-.69-.02-1.02-.07-.33-.05-.65-.11-.96-.2-.3-.09-.59-.2-.87-.33v-1.98c.48.21.97.4,1.48.57.51.17,1.02.25,1.53.25.35,0,.63-.05.84-.14.21-.09.37-.22.46-.38.1-.16.14-.34.14-.55,0-.25-.08-.47-.25-.65s-.4-.35-.7-.5c-.3-.16-.63-.32-1-.5-.23-.11-.49-.24-.76-.4-.27-.16-.54-.35-.78-.58-.25-.23-.45-.51-.61-.84-.16-.33-.24-.72-.24-1.18,0-.6.14-1.11.41-1.54.27-.43.67-.75,1.18-.98.51-.23,1.11-.34,1.81-.34.52,0,1.02.06,1.5.18s.97.3,1.49.53l-.69,1.66c-.46-.19-.88-.33-1.24-.44-.37-.1-.74-.16-1.12-.16-.27,0-.49.04-.68.13-.19.08-.33.2-.43.36-.1.15-.14.33-.14.53,0,.24.07.44.21.6.14.16.35.32.63.47s.63.33,1.05.53c.51.24.95.5,1.32.76.36.26.65.57.84.93.2.35.3.8.3,1.32Z"/>
      <path class="cls-4" d="M130.28,63.31h-5.79v-10.05h5.79v1.75h-3.66v2.21h3.4v1.75h-3.4v2.59h3.66v1.76Z"/>
      <path class="cls-4" d="M138.73,60.52c0,.6-.14,1.11-.43,1.55-.29.44-.71.78-1.26,1.02-.55.24-1.22.36-2.01.36-.35,0-.69-.02-1.02-.07-.33-.05-.65-.11-.96-.2-.3-.09-.59-.2-.87-.33v-1.98c.48.21.97.4,1.48.57.51.17,1.02.25,1.53.25.35,0,.63-.05.84-.14.21-.09.37-.22.46-.38.1-.16.14-.34.14-.55,0-.25-.08-.47-.25-.65s-.4-.35-.7-.5c-.3-.16-.63-.32-1-.5-.23-.11-.49-.24-.76-.4-.27-.16-.54-.35-.78-.58-.25-.23-.45-.51-.61-.84-.16-.33-.24-.72-.24-1.18,0-.6.14-1.11.41-1.54.27-.43.67-.75,1.18-.98.51-.23,1.11-.34,1.81-.34.52,0,1.02.06,1.5.18s.97.3,1.49.53l-.69,1.66c-.46-.19-.88-.33-1.24-.44-.37-.1-.74-.16-1.12-.16-.27,0-.49.04-.68.13-.19.08-.33.2-.43.36-.1.15-.14.33-.14.53,0,.24.07.44.21.6.14.16.35.32.63.47s.63.33,1.05.53c.51.24.95.5,1.32.76.36.26.65.57.84.93.2.35.3.8.3,1.32Z"/>
      <path class="cls-4" d="M146.9,60.52c0,.6-.14,1.11-.43,1.55-.29.44-.71.78-1.26,1.02-.55.24-1.22.36-2.01.36-.35,0-.69-.02-1.02-.07-.33-.05-.65-.11-.96-.2-.3-.09-.59-.2-.87-.33v-1.98c.48.21.97.4,1.48.57.51.17,1.02.25,1.53.25.35,0,.63-.05.84-.14.21-.09.37-.22.46-.38.1-.16.14-.34.14-.55,0-.25-.08-.47-.25-.65s-.4-.35-.7-.5c-.3-.16-.63-.32-1-.5-.23-.11-.49-.24-.76-.4-.27-.16-.54-.35-.78-.58-.25-.23-.45-.51-.61-.84-.16-.33-.24-.72-.24-1.18,0-.6.14-1.11.41-1.54.27-.43.67-.75,1.18-.98.51-.23,1.11-.34,1.81-.34.52,0,1.02.06,1.5.18s.97.3,1.49.53l-.69,1.66c-.46-.19-.88-.33-1.24-.44-.37-.1-.74-.16-1.12-.16-.27,0-.49.04-.68.13-.19.08-.33.2-.43.36-.1.15-.14.33-.14.53,0,.24.07.44.21.6.14.16.35.32.63.47s.63.33,1.05.53c.51.24.95.5,1.32.76.36.26.65.57.84.93.2.35.3.8.3,1.32Z"/>
      <path class="cls-4" d="M158.27,58.27c0,.77-.1,1.48-.29,2.11-.19.63-.48,1.18-.88,1.64s-.89.81-1.49,1.05c-.6.25-1.31.37-2.13.37s-1.53-.12-2.13-.37c-.6-.24-1.1-.6-1.49-1.05-.39-.46-.68-1.01-.88-1.64s-.29-1.34-.29-2.12c0-1.04.17-1.95.51-2.72.34-.77.87-1.37,1.58-1.8.71-.43,1.61-.64,2.71-.64s1.99.21,2.69.64c.7.43,1.23,1.03,1.57,1.8.34.77.51,1.68.51,2.73ZM150.93,58.27c0,.7.09,1.3.26,1.81.18.51.45.9.83,1.17s.86.41,1.46.41,1.1-.14,1.47-.41c.38-.27.65-.66.82-1.17.17-.51.26-1.11.26-1.81,0-1.05-.2-1.88-.59-2.49-.39-.6-1.04-.91-1.95-.91-.6,0-1.09.14-1.47.41s-.66.66-.83,1.17c-.18.51-.26,1.11-.26,1.82Z"/>
      <path class="cls-4" d="M163.7,53.26c.91,0,1.67.11,2.26.33.59.22,1.04.55,1.32,1,.29.44.43,1.01.43,1.68,0,.46-.09.86-.26,1.2-.17.34-.4.63-.69.87s-.59.43-.92.58l2.96,4.38h-2.36l-2.4-3.86h-1.13v3.86h-2.13v-10.05h2.93ZM163.55,55.01h-.65v2.71h.69c.71,0,1.21-.12,1.52-.35.3-.24.46-.58.46-1.04s-.16-.82-.49-1.02c-.33-.2-.84-.3-1.52-.3Z"/>
      <path class="cls-4" d="M170.49,63.31v-10.05h2.13v10.05h-2.13Z"/>
      <path class="cls-4" d="M181.72,63.31l-.73-2.39h-3.66l-.73,2.39h-2.3l3.55-10.09h2.6l3.56,10.09h-2.3ZM180.48,59.13l-.73-2.34c-.05-.16-.11-.36-.18-.6-.08-.25-.15-.5-.23-.75-.08-.25-.14-.48-.18-.66-.05.19-.11.42-.19.7-.08.28-.16.54-.23.79s-.13.42-.16.53l-.72,2.34h2.62Z"/>
      <path class="cls-4" d="M93.11,72.26c.91,0,1.67.11,2.26.33.59.22,1.04.55,1.32,1,.29.44.43,1.01.43,1.68,0,.46-.09.86-.26,1.2-.17.34-.4.63-.69.87s-.59.43-.92.58l2.96,4.38h-2.36l-2.4-3.86h-1.13v3.86h-2.13v-10.05h2.93ZM92.96,74.01h-.65v2.71h.69c.71,0,1.21-.12,1.52-.35.3-.24.46-.58.46-1.04s-.16-.82-.49-1.02c-.33-.2-.84-.3-1.52-.3Z"/>
      <path class="cls-4" d="M105.69,82.31h-5.79v-10.05h5.79v1.75h-3.66v2.21h3.4v1.75h-3.4v2.59h3.66v1.76Z"/>
      <path class="cls-4" d="M112.02,76.67h3.99v5.21c-.53.17-1.08.31-1.64.42-.57.1-1.21.16-1.93.16-1,0-1.85-.2-2.54-.59-.7-.39-1.23-.98-1.59-1.75-.36-.77-.54-1.72-.54-2.84,0-1.05.2-1.97.61-2.74.41-.77,1-1.37,1.78-1.79.78-.42,1.74-.63,2.86-.63.53,0,1.06.06,1.57.17.52.11.99.26,1.41.45l-.71,1.7c-.31-.16-.66-.29-1.05-.39-.39-.11-.81-.16-1.24-.16-.62,0-1.16.14-1.61.43s-.81.68-1.06,1.19c-.25.51-.37,1.11-.37,1.8,0,.66.09,1.24.27,1.74.18.51.46.9.85,1.19s.89.43,1.5.43c.3,0,.56-.01.77-.04.21-.03.4-.06.59-.09v-2.1h-1.9v-1.77Z"/>
      <path class="cls-4" d="M127,72.26v6.5c0,.69-.15,1.32-.46,1.87-.31.56-.77,1-1.38,1.32s-1.39.49-2.33.49c-1.33,0-2.34-.34-3.04-1.02-.7-.68-1.04-1.58-1.04-2.69v-6.47h2.12v6.15c0,.83.17,1.41.51,1.75.34.33.84.5,1.51.5.47,0,.85-.08,1.14-.24.29-.16.5-.41.64-.74.14-.33.21-.76.21-1.28v-6.14h2.12Z"/>
      <path class="cls-4" d="M129.88,82.31v-10.05h2.13v8.29h4.08v1.76h-6.21Z"/>
      <path class="cls-4" d="M144.41,82.31l-.73-2.39h-3.66l-.73,2.39h-2.3l3.55-10.09h2.6l3.56,10.09h-2.3ZM143.17,78.13l-.73-2.34c-.05-.16-.11-.36-.18-.6-.08-.25-.15-.5-.23-.75-.08-.25-.14-.48-.18-.66-.05.19-.11.42-.19.7-.08.28-.16.54-.23.79-.07.25-.13.42-.16.53l-.72,2.34h2.62Z"/>
      <path class="cls-4" d="M152.27,82.31h-2.13v-8.28h-2.73v-1.77h7.59v1.77h-2.73v8.28Z"/>
      <path class="cls-4" d="M166.09,77.27c0,.77-.1,1.48-.29,2.11s-.48,1.18-.88,1.64-.89.81-1.49,1.05-1.31.37-2.13.37-1.53-.12-2.13-.37c-.6-.25-1.1-.6-1.49-1.05-.39-.46-.68-1.01-.88-1.64-.19-.64-.29-1.34-.29-2.12,0-1.04.17-1.95.51-2.72.34-.77.87-1.37,1.58-1.8.71-.43,1.61-.64,2.71-.64s1.99.21,2.69.64c.7.43,1.23,1.03,1.57,1.8.34.77.51,1.68.51,2.73ZM158.75,77.27c0,.7.09,1.3.26,1.81.18.51.45.9.83,1.17s.86.41,1.46.41,1.1-.14,1.47-.41c.38-.27.65-.66.82-1.17.17-.51.26-1.11.26-1.81,0-1.05-.2-1.88-.59-2.49-.39-.6-1.04-.91-1.95-.91-.6,0-1.09.14-1.47.41s-.66.66-.83,1.17c-.18.51-.26,1.11-.26,1.82ZM164,69.16v.14c-.13.13-.31.29-.52.47-.21.19-.45.38-.69.59-.25.2-.49.4-.73.58s-.45.34-.62.46h-1.4v-.19c.15-.17.33-.38.53-.62s.4-.49.59-.75c.2-.26.36-.49.5-.7h2.35Z"/>
      <path class="cls-4" d="M171.52,72.26c.91,0,1.67.11,2.26.33.59.22,1.04.55,1.32,1,.29.44.43,1.01.43,1.68,0,.46-.09.86-.26,1.2-.17.34-.4.63-.69.87s-.59.43-.92.58l2.96,4.38h-2.36l-2.4-3.86h-1.13v3.86h-2.13v-10.05h2.93ZM171.37,74.01h-.65v2.71h.69c.71,0,1.21-.12,1.52-.35.3-.24.46-.58.46-1.04s-.16-.82-.49-1.02c-.33-.2-.84-.3-1.52-.3Z"/>
      <path class="cls-4" d="M178.31,82.31v-10.05h2.13v10.05h-2.13Z"/>
      <path class="cls-4" d="M189.54,82.31l-.73-2.39h-3.66l-.73,2.39h-2.3l3.55-10.09h2.6l3.56,10.09h-2.3ZM188.3,78.13l-.73-2.34c-.05-.16-.11-.36-.18-.6-.08-.25-.15-.5-.23-.75-.08-.25-.14-.48-.18-.66-.05.19-.11.42-.19.7-.08.28-.16.54-.23.79-.07.25-.13.42-.16.53l-.72,2.34h2.62Z"/>
    </g>
    <g>
      <g>
        <path class="cls-4" d="M97.67,34.95h29.83c2.05,0,3.49-.5,4.32-1.49,1.05-1.27,1.58-3.68,1.58-7.24s-.75-5.97-2.24-7c-.97-.66-3.09-.99-6.36-.99h-27.08l-.04-8.22h30.75c3.9,0,6.67.25,8.3.75,2.79.86,4.8,2.69,6.02,5.51.83,1.85,1.24,4.99,1.24,9.41,0,5.39-.43,9.12-1.29,11.19-.86,2.07-2.13,3.61-3.82,4.6-1.96,1.13-4.72,1.7-8.26,1.7h-32.95v-8.22Z"/>
        <path class="cls-4" d="M149.16,43.17V10.02h10.58v25.02h23.65v8.13h-34.23Z"/>
      </g>
      <rect class="cls-4" x="97.73" y="17.5" width="10.33" height="15.34"/>
    </g>
    <path class="cls-3" d="M74.53,32.21l-14.88,9.31v.81s-.04,11.73-.04,11.73c0,1.96-.66,3.72-1.81,5.38-2.7,3.89-7.71,7.15-11.92,9.83l-2.86,1.75-5.71,3.54-7.85-4.85-3.84-2.48c-2.96-1.91-6.48-4.65-8.46-7.33-1.3-1.68-2-3.52-2.16-5.58v-29.83c8.05-1.51,15.48-4.14,22.3-7.97,6.79,3.82,14.26,6.49,22.31,7.97l.03,3.47,14.88-8.71v-6.4c-10.49-.48-20.39-3.03-29.22-7.79-2.82-1.52-5.45-3.18-7.92-4.99-.12-.07-.03-.11-.22,0-2.96,2.2-6.14,4.13-9.55,5.85C19.27,10.13,9.73,12.44,0,12.85v44.36c.05,0,.09,0,.1.09,1.11,7.56,6.87,13.46,13.56,18.36,2.67,1.92,5.37,3.68,8.21,5.42l15.44,9.48,16.7-10.27c2.48-1.52,4.8-3.09,7.13-4.77,6.5-4.85,11.9-10.29,13.28-17.67-.03-.11,0-.18.11-.19v-25.46Z"/>
    <rect class="cls-2" x="217.25" width=".43" height="91.53"/>
    <g>
      <path class="cls-4" d="M249.81,35.42h-4.93v-8.57h4.93v1.49h-3.12v1.88h2.9v1.49h-2.9v2.21h3.12v1.5Z"/>
      <path class="cls-4" d="M256.02,33.47c0,.45-.1.82-.31,1.13s-.52.54-.93.7-.93.24-1.55.24c-.46,0-.85-.03-1.17-.09s-.66-.16-.99-.29v-1.48c.36.16.74.29,1.15.4s.77.16,1.08.16c.35,0,.6-.05.75-.16s.23-.24.23-.41c0-.11-.03-.21-.09-.3s-.19-.19-.39-.3-.51-.26-.94-.44c-.41-.17-.75-.35-1.01-.52s-.46-.38-.59-.62-.19-.55-.19-.92c0-.61.24-1.06.71-1.37s1.1-.46,1.89-.46c.41,0,.79.04,1.16.12s.75.21,1.14.39l-.54,1.29c-.32-.14-.63-.26-.92-.35s-.58-.13-.88-.13c-.26,0-.46.04-.59.11s-.2.18-.2.32c0,.11.03.2.1.28s.2.17.4.27.49.23.87.38c.37.15.69.31.97.48s.48.37.63.62.22.56.22.95Z"/>
      <path class="cls-4" d="M260.18,34.11c.2,0,.39-.02.57-.06s.37-.09.55-.15v1.33c-.19.09-.43.16-.71.21s-.59.08-.93.08c-.39,0-.74-.06-1.05-.19s-.55-.35-.73-.66-.27-.75-.27-1.32v-3.16h-.86v-.76l.98-.6.52-1.38h1.14v1.39h1.83v1.34h-1.83v3.16c0,.25.07.44.21.56s.33.18.57.18Z"/>
      <path class="cls-4" d="M265.31,28.73c.88,0,1.55.19,2.02.57s.7.96.7,1.75v4.37h-1.25l-.35-.89h-.05c-.19.23-.38.43-.57.57s-.42.26-.67.33-.56.11-.93.11c-.39,0-.73-.07-1.04-.22s-.55-.38-.72-.68-.26-.7-.26-1.17c0-.7.24-1.21.73-1.54s1.22-.51,2.2-.55l1.14-.04v-.29c0-.34-.09-.6-.27-.76s-.43-.24-.75-.24-.63.04-.93.13-.61.2-.91.34l-.59-1.21c.35-.18.74-.33,1.17-.43s.88-.16,1.34-.16ZM266.26,32.38l-.69.02c-.58.02-.98.12-1.2.31s-.34.44-.34.76c0,.27.08.47.24.58s.37.17.63.17c.38,0,.71-.11.97-.34s.4-.55.4-.97v-.54ZM267.61,26.22v.12c-.11.11-.26.24-.45.4s-.38.33-.59.5-.42.34-.62.5-.38.29-.53.4h-1.19v-.16c.13-.15.28-.33.45-.53s.34-.42.51-.64.31-.42.42-.6h2Z"/>
      <path class="cls-4" d="M275.65,35.53c-.65,0-1.2-.12-1.66-.35s-.8-.6-1.04-1.1-.36-1.13-.36-1.9.14-1.45.41-1.96.65-.88,1.13-1.12,1.04-.36,1.68-.36c.45,0,.84.04,1.17.13s.62.19.86.31l-.53,1.38c-.28-.11-.54-.21-.79-.28s-.48-.11-.73-.11c-.31,0-.57.07-.78.22s-.36.37-.46.66-.15.66-.15,1.1.05.79.16,1.08.27.5.47.64.46.21.76.21c.37,0,.7-.05.99-.15s.57-.24.84-.42v1.53c-.27.17-.56.3-.86.37s-.68.11-1.13.11Z"/>
      <path class="cls-4" d="M280.95,26.3v1.86c0,.32-.01.63-.03.93s-.04.5-.05.62h.09c.14-.23.31-.41.5-.55s.41-.24.64-.31.49-.1.76-.1c.47,0,.88.08,1.24.25s.62.43.82.78.29.81.29,1.37v4.27h-1.79v-3.83c0-.47-.09-.82-.26-1.06s-.44-.36-.8-.36-.64.08-.85.25-.35.41-.44.73-.13.72-.13,1.18v3.08h-1.79v-9.12h1.79Z"/>
      <path class="cls-4" d="M289.75,28.74c.61,0,1.13.12,1.56.35s.78.57,1.01,1.01.36.98.36,1.62v.87h-4.22c.02.5.17.9.45,1.19s.68.43,1.18.43c.42,0,.8-.04,1.15-.13s.71-.21,1.07-.39v1.38c-.32.16-.66.28-1.02.35s-.78.11-1.29.11c-.66,0-1.24-.12-1.74-.36s-.9-.61-1.19-1.11-.43-1.12-.43-1.88.13-1.4.39-1.91.62-.89,1.09-1.15,1.01-.38,1.62-.38ZM289.76,30.01c-.35,0-.64.11-.86.33s-.36.57-.4,1.05h2.51c0-.27-.05-.5-.14-.71s-.23-.37-.41-.49-.41-.18-.69-.18Z"/>
      <path class="cls-4" d="M296.05,38.3c-.91,0-1.61-.16-2.09-.48s-.72-.76-.72-1.34c0-.39.12-.72.37-.99s.61-.46,1.08-.57c-.18-.08-.34-.21-.48-.38s-.21-.37-.21-.57c0-.25.07-.46.22-.62s.35-.33.63-.49c-.34-.15-.62-.39-.82-.71s-.3-.71-.3-1.16c0-.48.1-.88.31-1.22s.51-.59.91-.76.89-.26,1.46-.26c.12,0,.26,0,.42.02s.31.03.44.05.23.04.27.05h2.29v.91l-1.03.26c.09.14.16.3.21.46s.07.34.07.52c0,.7-.25,1.25-.74,1.64s-1.17.59-2.04.59c-.21-.01-.4-.03-.59-.05-.09.07-.16.14-.21.22s-.07.16-.07.25.04.16.11.21.18.1.33.13.33.04.55.04h1.11c.72,0,1.27.15,1.64.46s.57.76.57,1.36c0,.77-.32,1.36-.96,1.78s-1.56.63-2.75.63ZM296.13,37.13c.43,0,.79-.04,1.1-.12s.54-.19.71-.34.25-.32.25-.52c0-.16-.05-.29-.14-.39s-.24-.16-.43-.2-.44-.06-.74-.06h-.93c-.22,0-.42.04-.59.11s-.31.17-.41.3-.15.27-.15.44c0,.25.12.44.35.58s.57.21.99.21ZM296.42,32.16c.34,0,.58-.1.74-.31s.23-.49.23-.84c0-.39-.08-.69-.24-.89s-.41-.3-.73-.3-.57.1-.74.3-.25.49-.25.89c0,.36.08.64.24.84s.41.31.74.31Z"/>
      <path class="cls-4" d="M303.6,28.73c.88,0,1.55.19,2.02.57s.7.96.7,1.75v4.37h-1.25l-.35-.89h-.05c-.19.23-.38.43-.57.57s-.42.26-.67.33-.56.11-.93.11c-.39,0-.73-.07-1.04-.22s-.55-.38-.72-.68-.26-.7-.26-1.17c0-.7.24-1.21.73-1.54s1.22-.51,2.2-.55l1.14-.04v-.29c0-.34-.09-.6-.27-.76s-.43-.24-.75-.24-.63.04-.93.13-.61.2-.91.34l-.59-1.21c.35-.18.74-.33,1.17-.43s.88-.16,1.34-.16ZM304.55,32.38l-.69.02c-.58.02-.98.12-1.2.31s-.34.44-.34.76c0,.27.08.47.24.58s.37.17.63.17c.38,0,.71-.11.97-.34s.4-.55.4-.97v-.54Z"/>
      <path class="cls-4" d="M311.89,28.74c.7,0,1.26.19,1.69.57s.64.99.64,1.83v4.27h-1.79v-3.83c0-.47-.08-.82-.25-1.06s-.44-.36-.8-.36c-.55,0-.92.19-1.12.56s-.3.91-.3,1.61v3.08h-1.79v-6.55h1.37l.24.84h.1c.14-.23.32-.41.52-.55s.44-.24.7-.31.52-.1.79-.1Z"/>
      <path class="cls-4" d="M318.13,35.53c-.73,0-1.33-.29-1.78-.86s-.69-1.41-.69-2.52.23-1.97.7-2.55,1.07-.86,1.82-.86c.31,0,.59.04.83.13s.44.2.62.35.32.31.44.49h.06c-.02-.12-.05-.31-.08-.55s-.05-.5-.05-.75v-2.1h1.79v9.12h-1.37l-.35-.85h-.08c-.11.18-.25.34-.42.49s-.37.26-.61.35-.51.13-.83.13ZM318.75,34.11c.49,0,.83-.15,1.03-.44s.31-.73.32-1.32v-.19c0-.64-.1-1.12-.29-1.46s-.56-.51-1.09-.51c-.39,0-.7.17-.93.51s-.33.83-.33,1.47.11,1.12.34,1.45.54.49.95.49Z"/>
      <path class="cls-4" d="M329.6,32.13c0,.55-.07,1.03-.22,1.45s-.36.78-.64,1.07-.62.51-1.01.66-.83.22-1.33.22c-.46,0-.88-.07-1.27-.22s-.72-.37-1-.66-.5-.65-.66-1.07-.23-.91-.23-1.45c0-.73.13-1.34.39-1.85s.62-.89,1.1-1.15,1.04-.39,1.71-.39c.61,0,1.16.13,1.63.39s.85.64,1.12,1.15.41,1.12.41,1.85ZM325.07,32.13c0,.43.05.79.14,1.08s.24.51.44.66.46.22.78.22.57-.07.77-.22.34-.37.43-.66.14-.65.14-1.08-.05-.79-.14-1.08-.24-.5-.44-.65-.46-.22-.78-.22c-.47,0-.82.16-1.03.49s-.32.81-.32,1.46Z"/>
      <path class="cls-4" d="M250.74,43.27v6.55h-1.37l-.24-.84h-.09c-.14.22-.32.4-.53.54s-.44.24-.7.31-.52.1-.79.1c-.47,0-.88-.08-1.22-.25s-.62-.42-.81-.78-.29-.81-.29-1.37v-4.27h1.79v3.83c0,.47.08.82.25,1.06s.44.36.8.36.65-.08.86-.25.35-.41.44-.73.13-.72.13-1.18v-3.08h1.79Z"/>
      <path class="cls-4" d="M260.31,43.14c.74,0,1.3.19,1.68.57s.57.99.57,1.83v4.27h-1.79v-3.83c0-.47-.08-.82-.24-1.06s-.41-.36-.74-.36c-.47,0-.81.17-1.01.51s-.3.82-.3,1.45v3.29h-1.79v-3.83c0-.31-.04-.57-.11-.79s-.18-.37-.32-.47-.33-.16-.56-.16c-.33,0-.59.08-.78.25s-.32.41-.4.73-.12.72-.12,1.18v3.08h-1.79v-6.55h1.37l.24.84h.1c.13-.23.3-.41.5-.55s.42-.24.67-.31.49-.1.74-.1c.48,0,.89.08,1.22.23s.59.4.77.73h.16c.2-.34.47-.58.83-.73s.73-.23,1.1-.23Z"/>
      <path class="cls-4" d="M271.24,43.14c.7,0,1.26.19,1.69.57s.64.99.64,1.83v4.27h-1.79v-3.83c0-.47-.08-.82-.25-1.06s-.44-.36-.8-.36c-.55,0-.92.19-1.12.56s-.3.91-.3,1.61v3.08h-1.79v-6.55h1.37l.24.84h.1c.14-.23.32-.41.52-.55s.44-.24.7-.31.52-.1.79-.1Z"/>
      <path class="cls-4" d="M281.36,46.53c0,.55-.07,1.03-.22,1.45s-.36.78-.64,1.07-.62.51-1.01.66-.83.22-1.33.22c-.46,0-.88-.07-1.27-.22s-.72-.37-1-.66-.5-.65-.66-1.07-.23-.91-.23-1.45c0-.73.13-1.34.39-1.85s.62-.89,1.1-1.15,1.04-.39,1.71-.39c.61,0,1.16.13,1.63.39s.85.64,1.12,1.15.41,1.12.41,1.85ZM276.83,46.53c0,.43.05.79.14,1.08s.24.51.44.66.46.22.78.22.57-.07.77-.22.34-.37.43-.66.14-.65.14-1.08-.05-.79-.14-1.08-.24-.5-.44-.65-.46-.22-.78-.22c-.47,0-.82.16-1.03.49s-.32.81-.32,1.46Z"/>
      <path class="cls-4" d="M284.39,49.82l-2.5-6.55h1.87l1.27,3.73c.07.22.13.45.17.69s.07.46.08.65h.05c.01-.21.04-.43.08-.66s.1-.46.18-.68l1.26-3.73h1.87l-2.5,6.55h-1.83Z"/>
      <path class="cls-4" d="M295.61,46.53c0,.55-.07,1.03-.22,1.45s-.36.78-.64,1.07-.62.51-1.01.66-.83.22-1.33.22c-.46,0-.88-.07-1.27-.22s-.72-.37-1-.66-.5-.65-.66-1.07-.23-.91-.23-1.45c0-.73.13-1.34.39-1.85s.62-.89,1.1-1.15,1.04-.39,1.71-.39c.61,0,1.16.13,1.63.39s.85.64,1.12,1.15.41,1.12.41,1.85ZM291.08,46.53c0,.43.05.79.14,1.08s.24.51.44.66.46.22.78.22.57-.07.77-.22.34-.37.43-.66.14-.65.14-1.08-.05-.79-.14-1.08-.24-.5-.44-.65-.46-.22-.78-.22c-.47,0-.82.16-1.03.49s-.32.81-.32,1.46Z"/>
      <path class="cls-4" d="M302.87,49.93c-.65,0-1.2-.12-1.66-.35s-.8-.6-1.04-1.1-.36-1.13-.36-1.9.14-1.45.41-1.96.65-.88,1.13-1.12,1.04-.36,1.68-.36c.45,0,.84.04,1.17.13s.62.19.86.31l-.53,1.38c-.28-.11-.54-.21-.79-.28s-.48-.11-.73-.11c-.31,0-.57.07-.78.22s-.36.37-.46.66-.15.66-.15,1.1.05.79.16,1.08.27.5.47.64.46.21.76.21c.37,0,.7-.05.99-.15s.57-.24.84-.42v1.53c-.27.17-.56.3-.86.37s-.68.11-1.13.11Z"/>
      <path class="cls-4" d="M309.06,43.13c.88,0,1.55.19,2.02.57s.7.96.7,1.75v4.37h-1.25l-.35-.89h-.05c-.19.23-.38.43-.57.57s-.42.26-.67.33-.56.11-.93.11c-.39,0-.73-.07-1.04-.22s-.55-.38-.72-.68-.26-.7-.26-1.17c0-.7.24-1.21.73-1.54s1.22-.51,2.2-.55l1.14-.04v-.29c0-.34-.09-.6-.27-.76s-.43-.24-.75-.24-.63.04-.93.13-.61.2-.91.34l-.59-1.21c.35-.18.74-.33,1.17-.43s.88-.16,1.34-.16ZM310.01,46.78l-.69.02c-.58.02-.98.12-1.2.31s-.34.44-.34.76c0,.27.08.47.24.58s.37.17.63.17c.38,0,.71-.11.97-.34s.4-.55.4-.97v-.54Z"/>
      <path class="cls-4" d="M317.27,43.14c.74,0,1.33.29,1.79.86s.68,1.42.68,2.53c0,.74-.11,1.37-.32,1.87s-.51.89-.89,1.15-.81.39-1.31.39c-.32,0-.59-.04-.81-.12s-.42-.18-.58-.31-.3-.26-.42-.41h-.09c.03.16.05.32.07.48s.02.32.02.48v2.64h-1.79v-9.43h1.45l.25.85h.08c.12-.18.26-.34.43-.49s.37-.27.61-.35.51-.13.82-.13ZM316.7,44.57c-.31,0-.56.06-.74.19s-.32.32-.4.58-.13.58-.14.98v.19c0,.42.04.78.12,1.07s.21.52.4.67.45.23.78.23c.27,0,.5-.08.67-.23s.31-.38.4-.67.13-.66.13-1.08c0-.64-.1-1.12-.3-1.45s-.51-.49-.93-.49Z"/>
      <path class="cls-4" d="M324.42,40.62v.12c-.11.11-.26.24-.45.4s-.38.33-.59.5-.42.34-.62.5-.38.29-.53.4h-1.19v-.16c.13-.15.28-.33.45-.53s.34-.42.51-.64.31-.42.42-.6h2ZM323.01,49.82h-1.79v-6.55h1.79v6.55Z"/>
      <path class="cls-4" d="M327.64,48.51c.2,0,.39-.02.57-.06s.37-.09.55-.15v1.33c-.19.09-.43.16-.71.21s-.59.08-.93.08c-.39,0-.74-.06-1.05-.19s-.55-.35-.73-.66-.27-.75-.27-1.32v-3.16h-.86v-.76l.98-.6.52-1.38h1.14v1.39h1.83v1.34h-1.83v3.16c0,.25.07.44.21.56s.33.18.57.18Z"/>
      <path class="cls-4" d="M336.1,43.27v6.55h-1.37l-.24-.84h-.09c-.14.22-.32.4-.53.54s-.44.24-.7.31-.52.1-.79.1c-.47,0-.88-.08-1.22-.25s-.62-.42-.81-.78-.29-.81-.29-1.37v-4.27h1.79v3.83c0,.47.08.82.25,1.06s.44.36.8.36.65-.08.86-.25.35-.41.44-.73.13-.72.13-1.18v-3.08h1.79Z"/>
      <path class="cls-4" d="M339.76,49.82h-1.79v-9.12h1.79v9.12Z"/>
      <path class="cls-4" d="M347.59,46.53c0,.55-.07,1.03-.22,1.45s-.36.78-.64,1.07-.62.51-1.01.66-.83.22-1.33.22c-.46,0-.88-.07-1.27-.22s-.72-.37-1-.66-.5-.65-.66-1.07-.23-.91-.23-1.45c0-.73.13-1.34.39-1.85s.62-.89,1.1-1.15,1.04-.39,1.71-.39c.61,0,1.16.13,1.63.39s.85.64,1.12,1.15.41,1.12.41,1.85ZM343.06,46.53c0,.43.05.79.14,1.08s.24.51.44.66.46.22.78.22.57-.07.77-.22.34-.37.43-.66.14-.65.14-1.08-.05-.79-.14-1.08-.24-.5-.44-.65-.46-.22-.78-.22c-.47,0-.82.16-1.03.49s-.32.81-.32,1.46Z"/>
      <path class="cls-4" d="M354.26,49.93c-.73,0-1.33-.29-1.78-.86s-.69-1.41-.69-2.52.23-1.97.7-2.55,1.07-.86,1.82-.86c.31,0,.59.04.83.13s.44.2.62.35.32.31.44.49h.06c-.02-.12-.05-.31-.08-.55s-.05-.5-.05-.75v-2.1h1.79v9.12h-1.37l-.35-.85h-.08c-.11.18-.25.34-.42.49s-.37.26-.61.35-.51.13-.83.13ZM354.89,48.51c.49,0,.83-.15,1.03-.44s.31-.73.32-1.32v-.19c0-.64-.1-1.12-.29-1.46s-.56-.51-1.09-.51c-.39,0-.7.17-.93.51s-.33.83-.33,1.47.11,1.12.34,1.45.54.49.95.49Z"/>
      <path class="cls-4" d="M362.46,43.13c.88,0,1.55.19,2.02.57s.7.96.7,1.75v4.37h-1.25l-.35-.89h-.05c-.19.23-.38.43-.57.57s-.42.26-.67.33-.56.11-.93.11c-.39,0-.73-.07-1.04-.22s-.55-.38-.72-.68-.26-.7-.26-1.17c0-.7.24-1.21.73-1.54s1.22-.51,2.2-.55l1.14-.04v-.29c0-.34-.09-.6-.27-.76s-.43-.24-.75-.24-.63.04-.93.13-.61.2-.91.34l-.59-1.21c.35-.18.74-.33,1.17-.43s.88-.16,1.34-.16ZM363.41,46.78l-.69.02c-.58.02-.98.12-1.2.31s-.34.44-.34.76c0,.27.08.47.24.58s.37.17.63.17c.38,0,.71-.11.97-.34s.4-.55.4-.97v-.54Z"/>
      <path class="cls-4" d="M245.63,55.1c.27,0,.49.06.69.18s.29.35.29.69-.1.56-.29.69-.42.19-.69.19-.5-.06-.69-.19-.28-.36-.28-.69.09-.57.28-.69.42-.18.69-.18ZM246.52,57.67v6.55h-1.79v-6.55h1.79Z"/>
      <path class="cls-4" d="M252.11,57.54c.7,0,1.26.19,1.69.57s.64.99.64,1.83v4.27h-1.79v-3.83c0-.47-.08-.82-.25-1.06s-.44-.36-.8-.36c-.55,0-.92.19-1.12.56s-.3.91-.3,1.61v3.08h-1.79v-6.55h1.37l.24.84h.1c.14-.23.32-.41.52-.55s.44-.24.7-.31.52-.1.79-.1Z"/>
      <path class="cls-4" d="M259.04,62.91c.2,0,.39-.02.57-.06s.37-.09.55-.15v1.33c-.19.09-.43.16-.71.21s-.59.08-.93.08c-.39,0-.74-.06-1.05-.19s-.55-.35-.73-.66-.27-.75-.27-1.32v-3.16h-.86v-.76l.98-.6.52-1.38h1.14v1.39h1.83v1.34h-1.83v3.16c0,.25.07.44.21.56s.33.18.57.18Z"/>
      <path class="cls-4" d="M264.19,57.54c.61,0,1.13.12,1.56.35s.78.57,1.01,1.01.36.98.36,1.62v.87h-4.22c.02.5.17.9.45,1.19s.68.43,1.18.43c.42,0,.8-.04,1.15-.13s.71-.21,1.07-.39v1.38c-.32.16-.66.28-1.02.35s-.78.11-1.29.11c-.66,0-1.24-.12-1.74-.36s-.9-.61-1.19-1.11-.43-1.12-.43-1.88.13-1.4.39-1.91.62-.89,1.09-1.15,1.01-.38,1.62-.38ZM264.2,58.81c-.35,0-.64.11-.86.33s-.36.57-.4,1.05h2.51c0-.27-.05-.5-.14-.71s-.23-.37-.41-.49-.41-.18-.69-.18Z"/>
      <path class="cls-4" d="M270.37,64.22h-1.79v-9.12h1.79v9.12Z"/>
      <path class="cls-4" d="M273.14,55.1c.27,0,.49.06.69.18s.29.35.29.69-.1.56-.29.69-.42.19-.69.19-.5-.06-.69-.19-.28-.36-.28-.69.09-.57.28-.69.42-.18.69-.18ZM274.03,57.67v6.55h-1.79v-6.55h1.79Z"/>
      <path class="cls-4" d="M277.82,67.1c-.91,0-1.61-.16-2.09-.48s-.72-.76-.72-1.34c0-.39.12-.72.37-.99s.61-.46,1.08-.57c-.18-.08-.34-.21-.48-.38s-.21-.37-.21-.57c0-.25.07-.46.22-.62s.35-.33.63-.49c-.34-.15-.62-.39-.82-.71s-.3-.71-.3-1.16c0-.48.1-.88.31-1.22s.51-.59.91-.76.89-.26,1.46-.26c.12,0,.26,0,.42.02s.31.03.44.05.23.04.27.05h2.29v.91l-1.03.26c.09.14.16.3.21.46s.07.34.07.52c0,.7-.25,1.25-.74,1.64s-1.17.59-2.04.59c-.21-.01-.4-.03-.59-.05-.09.07-.16.14-.21.22s-.07.16-.07.25.04.16.11.21.18.1.33.13.33.04.55.04h1.11c.72,0,1.27.15,1.64.46s.57.76.57,1.36c0,.77-.32,1.36-.96,1.78s-1.56.63-2.75.63ZM277.9,65.93c.43,0,.79-.04,1.1-.12s.54-.19.71-.34.25-.32.25-.52c0-.16-.05-.29-.14-.39s-.24-.16-.43-.2-.44-.06-.74-.06h-.93c-.22,0-.42.04-.59.11s-.31.17-.41.3-.15.27-.15.44c0,.25.12.44.35.58s.57.21.99.21ZM278.18,60.96c.34,0,.58-.1.74-.31s.23-.49.23-.84c0-.39-.08-.69-.24-.89s-.41-.3-.73-.3-.57.1-.74.3-.25.49-.25.89c0,.36.08.64.24.84s.41.31.74.31Z"/>
      <path class="cls-4" d="M285.38,57.54c.61,0,1.13.12,1.56.35s.78.57,1.01,1.01.36.98.36,1.62v.87h-4.22c.02.5.17.9.45,1.19s.68.43,1.18.43c.42,0,.8-.04,1.15-.13s.71-.21,1.07-.39v1.38c-.32.16-.66.28-1.02.35s-.78.11-1.29.11c-.66,0-1.24-.12-1.74-.36s-.9-.61-1.19-1.11-.43-1.12-.43-1.88.13-1.4.39-1.91.62-.89,1.09-1.15,1.01-.38,1.62-.38ZM286.35,55.02c.11.18.26.38.44.6s.37.43.56.64.36.38.5.53v.16h-1.18c-.21-.12-.44-.27-.69-.45s-.48-.37-.68-.58c-.21.21-.44.41-.67.58s-.46.32-.67.45h-1.19v-.16c.15-.15.32-.33.51-.53s.38-.42.56-.64.32-.42.43-.6h2.09ZM285.4,58.81c-.35,0-.64.11-.86.33s-.36.57-.4,1.05h2.51c0-.27-.05-.5-.14-.71s-.23-.37-.41-.49-.41-.18-.69-.18Z"/>
      <path class="cls-4" d="M293.49,57.54c.7,0,1.26.19,1.69.57s.64.99.64,1.83v4.27h-1.79v-3.83c0-.47-.08-.82-.25-1.06s-.44-.36-.8-.36c-.55,0-.92.19-1.12.56s-.3.91-.3,1.61v3.08h-1.79v-6.55h1.37l.24.84h.1c.14-.23.32-.41.52-.55s.44-.24.7-.31.52-.1.79-.1Z"/>
      <path class="cls-4" d="M300.32,64.33c-.65,0-1.2-.12-1.66-.35s-.8-.6-1.04-1.1-.36-1.13-.36-1.9.14-1.45.41-1.96.65-.88,1.13-1.12,1.04-.36,1.68-.36c.45,0,.84.04,1.17.13s.62.19.86.31l-.53,1.38c-.28-.11-.54-.21-.79-.28s-.48-.11-.73-.11c-.31,0-.57.07-.78.22s-.36.37-.46.66-.15.66-.15,1.1.05.79.16,1.08.27.5.47.64.46.21.76.21c.37,0,.7-.05.99-.15s.57-.24.84-.42v1.53c-.27.17-.56.3-.86.37s-.68.11-1.13.11Z"/>
      <path class="cls-4" d="M304.73,55.1c.27,0,.49.06.69.18s.29.35.29.69-.1.56-.29.69-.42.19-.69.19-.5-.06-.69-.19-.28-.36-.28-.69.09-.57.28-.69.42-.18.69-.18ZM305.62,57.67v6.55h-1.79v-6.55h1.79Z"/>
      <path class="cls-4" d="M310.17,57.53c.88,0,1.55.19,2.02.57s.7.96.7,1.75v4.37h-1.25l-.35-.89h-.05c-.19.23-.38.43-.57.57s-.42.26-.67.33-.56.11-.93.11c-.39,0-.73-.07-1.04-.22s-.55-.38-.72-.68-.26-.7-.26-1.17c0-.7.24-1.21.73-1.54s1.22-.51,2.2-.55l1.14-.04v-.29c0-.34-.09-.6-.27-.76s-.43-.24-.75-.24-.63.04-.93.13-.61.2-.91.34l-.59-1.21c.35-.18.74-.33,1.17-.43s.88-.16,1.34-.16ZM311.12,61.18l-.69.02c-.58.02-.98.12-1.2.31s-.34.44-.34.76c0,.27.08.47.24.58s.37.17.63.17c.38,0,.71-.11.97-.34s.4-.55.4-.97v-.54Z"/>
      <path class="cls-4" d="M321.51,57.54c.09,0,.19,0,.31.01s.22.02.29.04l-.13,1.68c-.06-.02-.14-.03-.25-.04s-.2-.01-.28-.01c-.23,0-.45.03-.67.09s-.41.15-.58.28-.31.3-.41.52-.15.47-.15.78v3.33h-1.79v-6.55h1.35l.26,1.1h.09c.13-.22.29-.43.48-.61s.41-.33.66-.45.52-.17.81-.17Z"/>
      <path class="cls-4" d="M326.01,57.54c.61,0,1.13.12,1.56.35s.78.57,1.01,1.01.36.98.36,1.62v.87h-4.22c.02.5.17.9.45,1.19s.68.43,1.18.43c.42,0,.8-.04,1.15-.13s.71-.21,1.07-.39v1.38c-.32.16-.66.28-1.02.35s-.78.11-1.29.11c-.66,0-1.24-.12-1.74-.36s-.9-.61-1.19-1.11-.43-1.12-.43-1.88.13-1.4.39-1.91.62-.89,1.09-1.15,1.01-.38,1.62-.38ZM326.02,58.81c-.35,0-.64.11-.86.33s-.36.57-.4,1.05h2.51c0-.27-.05-.5-.14-.71s-.23-.37-.41-.49-.41-.18-.69-.18Z"/>
      <path class="cls-4" d="M332.31,67.1c-.91,0-1.61-.16-2.09-.48s-.72-.76-.72-1.34c0-.39.12-.72.37-.99s.61-.46,1.08-.57c-.18-.08-.34-.21-.48-.38s-.21-.37-.21-.57c0-.25.07-.46.22-.62s.35-.33.63-.49c-.34-.15-.62-.39-.82-.71s-.3-.71-.3-1.16c0-.48.1-.88.31-1.22s.51-.59.91-.76.89-.26,1.46-.26c.12,0,.26,0,.42.02s.31.03.44.05.23.04.27.05h2.29v.91l-1.03.26c.09.14.16.3.21.46s.07.34.07.52c0,.7-.25,1.25-.74,1.64s-1.17.59-2.04.59c-.21-.01-.4-.03-.59-.05-.09.07-.16.14-.21.22s-.07.16-.07.25.04.16.11.21.18.1.33.13.33.04.55.04h1.11c.72,0,1.27.15,1.64.46s.57.76.57,1.36c0,.77-.32,1.36-.96,1.78s-1.56.63-2.75.63ZM332.39,65.93c.43,0,.79-.04,1.1-.12s.54-.19.71-.34.25-.32.25-.52c0-.16-.05-.29-.14-.39s-.24-.16-.43-.2-.44-.06-.74-.06h-.93c-.22,0-.42.04-.59.11s-.31.17-.41.3-.15.27-.15.44c0,.25.12.44.35.58s.57.21.99.21ZM332.67,60.96c.34,0,.58-.1.74-.31s.23-.49.23-.84c0-.39-.08-.69-.24-.89s-.41-.3-.73-.3-.57.1-.74.3-.25.49-.25.89c0,.36.08.64.24.84s.41.31.74.31Z"/>
      <path class="cls-4" d="M343.19,57.67v6.55h-1.37l-.24-.84h-.09c-.14.22-.32.4-.53.54s-.44.24-.7.31-.52.1-.79.1c-.47,0-.88-.08-1.22-.25s-.62-.42-.81-.78-.29-.81-.29-1.37v-4.27h1.79v3.83c0,.47.08.82.25,1.06s.44.36.8.36.65-.08.86-.25.35-.41.44-.73.13-.72.13-1.18v-3.08h1.79Z"/>
      <path class="cls-4" d="M346.85,64.22h-1.79v-9.12h1.79v9.12Z"/>
      <path class="cls-4" d="M351.41,57.53c.88,0,1.55.19,2.02.57s.7.96.7,1.75v4.37h-1.25l-.35-.89h-.05c-.19.23-.38.43-.57.57s-.42.26-.67.33-.56.11-.93.11c-.39,0-.73-.07-1.04-.22s-.55-.38-.72-.68-.26-.7-.26-1.17c0-.7.24-1.21.73-1.54s1.22-.51,2.2-.55l1.14-.04v-.29c0-.34-.09-.6-.27-.76s-.43-.24-.75-.24-.63.04-.93.13-.61.2-.91.34l-.59-1.21c.35-.18.74-.33,1.17-.43s.88-.16,1.34-.16ZM352.36,61.18l-.69.02c-.58.02-.98.12-1.2.31s-.34.44-.34.76c0,.27.08.47.24.58s.37.17.63.17c.38,0,.71-.11.97-.34s.4-.55.4-.97v-.54Z"/>
      <path class="cls-4" d="M358.73,62.91c.2,0,.39-.02.57-.06s.37-.09.55-.15v1.33c-.19.09-.43.16-.71.21s-.59.08-.93.08c-.39,0-.74-.06-1.05-.19s-.55-.35-.73-.66-.27-.75-.27-1.32v-3.16h-.86v-.76l.98-.6.52-1.38h1.14v1.39h1.83v1.34h-1.83v3.16c0,.25.07.44.21.56s.33.18.57.18Z"/>
      <path class="cls-4" d="M367.13,60.93c0,.55-.07,1.03-.22,1.45s-.36.78-.64,1.07-.62.51-1.01.66-.83.22-1.33.22c-.46,0-.88-.07-1.27-.22s-.72-.37-1-.66-.5-.65-.66-1.07-.23-.91-.23-1.45c0-.73.13-1.34.39-1.85s.62-.89,1.1-1.15,1.04-.39,1.71-.39c.61,0,1.16.13,1.63.39s.85.64,1.12,1.15.41,1.12.41,1.85ZM362.6,60.93c0,.43.05.79.14,1.08s.24.51.44.66.46.22.78.22.57-.07.77-.22.34-.37.43-.66.14-.65.14-1.08-.05-.79-.14-1.08-.24-.5-.44-.65-.46-.22-.78-.22c-.47,0-.82.16-1.03.49s-.32.81-.32,1.46ZM366.27,55.02v.12c-.11.11-.26.24-.45.4s-.38.33-.59.5-.42.34-.62.5-.38.29-.53.4h-1.19v-.16c.13-.15.28-.33.45-.53s.34-.42.51-.64.31-.42.42-.6h2Z"/>
      <path class="cls-4" d="M372.27,57.54c.09,0,.19,0,.31.01s.22.02.29.04l-.13,1.68c-.06-.02-.14-.03-.25-.04s-.2-.01-.28-.01c-.23,0-.45.03-.67.09s-.41.15-.58.28-.31.3-.41.52-.15.47-.15.78v3.33h-1.79v-6.55h1.35l.26,1.1h.09c.13-.22.29-.43.48-.61s.41-.33.66-.45.52-.17.81-.17Z"/>
      <path class="cls-4" d="M374.96,55.1c.27,0,.49.06.69.18s.29.35.29.69-.1.56-.29.69-.42.19-.69.19-.5-.06-.69-.19-.28-.36-.28-.69.09-.57.28-.69.42-.18.69-.18ZM375.85,57.67v6.55h-1.79v-6.55h1.79Z"/>
      <path class="cls-4" d="M380.4,57.53c.88,0,1.55.19,2.02.57s.7.96.7,1.75v4.37h-1.25l-.35-.89h-.05c-.19.23-.38.43-.57.57s-.42.26-.67.33-.56.11-.93.11c-.39,0-.73-.07-1.04-.22s-.55-.38-.72-.68-.26-.7-.26-1.17c0-.7.24-1.21.73-1.54s1.22-.51,2.2-.55l1.14-.04v-.29c0-.34-.09-.6-.27-.76s-.43-.24-.75-.24-.63.04-.93.13-.61.2-.91.34l-.59-1.21c.35-.18.74-.33,1.17-.43s.88-.16,1.34-.16ZM381.35,61.18l-.69.02c-.58.02-.98.12-1.2.31s-.34.44-.34.76c0,.27.08.47.24.58s.37.17.63.17c.38,0,.71-.11.97-.34s.4-.55.4-.97v-.54Z"/>
      <path class="cls-4" d="M384.72,63.38c0-.37.1-.62.3-.77s.44-.22.73-.22.52.07.72.22.3.41.3.77-.1.61-.3.76-.44.23-.72.23-.53-.08-.73-.23-.3-.41-.3-.76Z"/>
    </g>
  </g>
</svg>