<?xml version="1.0" encoding="UTF-8"?>
<!DOCTYPE svg PUBLIC "-//W3C//DTD SVG 1.1//EN" "http://www.w3.org/Graphics/SVG/1.1/DTD/svg11.dtd">
<!-- Creator: CorelDRAW 2020 (64 Bit) -->
<svg xmlns="http://www.w3.org/2000/svg" xml:space="preserve" width="95.7728mm" height="50.4017mm" version="1.1" shape-rendering="geometricPrecision" text-rendering="geometricPrecision" image-rendering="optimizeQuality" fill-rule="evenodd" clip-rule="evenodd"
viewBox="0 0 9563041 5032677"
 xmlns:xlink="http://www.w3.org/1999/xlink"
 xmlns:xodm="http://www.corel.com/coreldraw/odm/2003">
 <defs>
    <linearGradient id="id0" gradientUnits="userSpaceOnUse" x1="1121804" y1="3871681" x2="1792046" y2="1903740">
     <stop offset="0" stop-opacity="1" stop-color="#009933"/>
     <stop offset="1" stop-opacity="1" stop-color="white"/>
    </linearGradient>
    <linearGradient id="id1" gradientUnits="userSpaceOnUse" x1="1110380" y1="1589281" x2="-165744" y2="2849532">
     <stop offset="0" stop-opacity="1" stop-color="red"/>
     <stop offset="1" stop-opacity="1" stop-color="white"/>
    </linearGradient>
    <linearGradient id="id2" gradientUnits="userSpaceOnUse" x1="1734635" y1="2646845" x2="1609759" y2="940294">
     <stop offset="0" stop-opacity="1" stop-color="#FFCC00"/>
     <stop offset="1" stop-opacity="1" stop-color="white"/>
    </linearGradient>
 </defs>
 <g id="Camada_x0020_1">
  <metadata id="CorelCorpID_0Corel-Layer"/>
  <g id="_2081083991088">
   <path fill="url(#id0)" d="M735046 2709136c-40649,100990 -56646,664990 -46730,764861 29027,292435 356879,503870 609273,302859 121649,-96886 1277128,-1234152 1349960,-1332885 -283628,161450 -623891,321811 -906960,406495 -294731,88169 -625109,145623 -1005543,-141330z"/>
   <path fill="url(#id1)" d="M605039 3443493c22497,-98673 5442,-353953 7898,-469631 6301,-296099 11643,-672648 169957,-947589 52602,-91364 111933,-161320 190267,-224865 67589,-54828 168279,-109287 218774,-158155 -247262,-190856 -608085,-505677 -866400,-462591 -130566,21778 -269848,125533 -295989,293862 -23835,153462 259893,963056 324487,1182969 38173,129957 79302,251695 118454,384747 30525,103726 85423,314142 132553,401253z"/>
   <path fill="url(#id2)" d="M715844 1217657c404108,293523 1149249,636892 1172554,1260393 2736,73151 -14518,150995 2047,219234 363379,-151754 1000890,-288251 854677,-753588 -56376,-179393 -191615,-220602 -354722,-264496l-1456382 -410509c-35078,-10005 -68069,-19820 -101199,-29566l-76596 -19102c-38173,-5232 -18682,-3125 -40380,-2366z"/>
   <path fill="#666666" fill-rule="nonzero" d="M3205827 3766861l-28737 0c-3275,0 -5851,-829 -7858,-2436 -1947,-1668 -3475,-3685 -4593,-6121l-22826 -64424 -110485 0 -22616 64214c-839,2297 -2366,4314 -4593,6121 -2227,1747 -4943,2646 -8008,2646l-28797 0 100540 -267881 37704 0 100271 267881zm-165104 -99502l91773 0 -37924 -107770c-1398,-3275 -2716,-7109 -4114,-11483 -1388,-4324 -2636,-8977 -3894,-14059 -1318,5152 -2716,9955 -4034,14269 -1388,4373 -2646,8208 -3894,11413l-37914 107630zm423390 -126142c-2017,3754 -4793,5702 -8348,5702 -2017,0 -4453,-1038 -7239,-3205 -2786,-2077 -6191,-4373 -10225,-6880 -3964,-2516 -8837,-4873 -14478,-6960 -5622,-2087 -12382,-3135 -20240,-3135 -7519,0 -14059,1048 -19691,3135 -5632,2087 -10305,5013 -14059,8767 -3754,3754 -6540,8068 -8487,13081 -1877,4943 -2856,10295 -2856,16006 0,7449 1747,13640 5222,18502 3475,4943 8008,9116 13630,12521 5642,3485 12112,6540 19281,9116 7239,2576 14538,5222 22057,7938 7439,2706 14818,5841 21987,9256 7229,3475 13640,7858 19271,13081 5642,5212 10155,11613 13640,19271 3475,7579 5222,16905 5222,27898 0,11832 -1887,22896 -5711,33121 -3824,10305 -9326,19211 -16625,26790 -7239,7659 -16216,13630 -26790,17953 -10574,4373 -22686,6540 -36316,6540 -16426,0 -31523,-3135 -45303,-9466 -13839,-6331 -25532,-14888 -35208,-25602l10784 -17534c979,-1458 2157,-2646 3615,-3555 1398,-899 3065,-1318 5013,-1318 2576,0 5432,1388 8637,4174 3195,2786 7159,5851 11892,9186 4803,3335 10504,6331 17254,9186 6750,2786 14748,4174 24144,4174 7858,0 14898,-1178 21019,-3485 6121,-2297 11263,-5562 15587,-9805 4234,-4184 7509,-9256 9805,-15167 2217,-5921 3345,-12461 3345,-19691 0,-8008 -1747,-14618 -5222,-19771 -3485,-5142 -7998,-9456 -13640,-12941 -5632,-3475 -12032,-6400 -19271,-8767 -7169,-2356 -14548,-4863 -21987,-7439 -7519,-2576 -14818,-5502 -22067,-8837 -7159,-3345 -13560,-7719 -19271,-13150 -5622,-5432 -10155,-12182 -13630,-20180 -3475,-8068 -5222,-18013 -5222,-29985 0,-9396 1817,-18512 5362,-27419 3475,-8907 8627,-16765 15377,-23655 6680,-6890 15028,-12392 24843,-16495 9875,-4164 21149,-6261 33949,-6261 14259,0 27349,2436 39242,7169 11902,4733 22197,11693 30894,20809l-9186 17324zm286184 0c-2027,3754 -4793,5702 -8358,5702 -2007,0 -4443,-1038 -7229,-3205 -2786,-2077 -6191,-4373 -10225,-6880 -3964,-2516 -8837,-4873 -14478,-6960 -5632,-2087 -12382,-3135 -20240,-3135 -7519,0 -14059,1048 -19701,3135 -5622,2087 -10295,5013 -14049,8767 -3754,3754 -6540,8068 -8487,13081 -1877,4943 -2856,10295 -2856,16006 0,7449 1747,13640 5222,18502 3475,4943 7998,9116 13630,12521 5642,3485 12112,6540 19271,9116 7249,2576 14548,5222 22067,7938 7439,2706 14818,5841 21987,9256 7229,3475 13640,7858 19271,13081 5642,5212 10155,11613 13640,19271 3475,7579 5222,16905 5222,27898 0,11832 -1887,22896 -5711,33121 -3824,10305 -9326,19211 -16625,26790 -7249,7659 -16226,13630 -26790,17953 -10574,4373 -22686,6540 -36326,6540 -16416,0 -31523,-3135 -45293,-9466 -13849,-6331 -25532,-14888 -35208,-25602l10784 -17534c969,-1458 2157,-2646 3615,-3555 1398,-899 3065,-1318 5013,-1318 2576,0 5432,1388 8637,4174 3195,2786 7159,5851 11882,9186 4813,3335 10514,6331 17264,9186 6750,2786 14748,4174 24144,4174 7858,0 14888,-1178 21009,-3485 6121,-2297 11273,-5562 15587,-9805 4244,-4184 7519,-9256 9815,-15167 2217,-5921 3345,-12461 3345,-19691 0,-8008 -1747,-14618 -5222,-19771 -3485,-5142 -8008,-9456 -13640,-12941 -5632,-3475 -12032,-6400 -19281,-8767 -7159,-2356 -14538,-4863 -21987,-7439 -7509,-2576 -14808,-5502 -22057,-8837 -7159,-3345 -13560,-7719 -19271,-13150 -5632,-5432 -10155,-12182 -13630,-20180 -3475,-8068 -5222,-18013 -5222,-29985 0,-9396 1817,-18512 5362,-27419 3475,-8907 8627,-16765 15377,-23655 6680,-6890 15018,-12392 24843,-16495 9875,-4164 21139,-6261 33949,-6261 14259,0 27339,2436 39242,7169 11902,4733 22197,11693 30894,20809l-9186 17324zm309839 -42237l0 30195 -119262 0 0 87879 96027 0 0 29157 -96027 0 0 90445 119462 0 -200 30205 -156557 0 0 -267881 156557 0zm274561 42237c-2017,3754 -4793,5702 -8348,5702 -2017,0 -4453,-1038 -7239,-3205 -2776,-2077 -6191,-4373 -10225,-6880 -3964,-2516 -8837,-4873 -14468,-6960 -5632,-2087 -12382,-3135 -20250,-3135 -7509,0 -14049,1048 -19691,3135 -5632,2087 -10305,5013 -14059,8767 -3754,3754 -6540,8068 -8477,13081 -1887,4943 -2856,10295 -2856,16006 0,7449 1737,13640 5212,18502 3475,4943 8008,9116 13640,12521 5632,3485 12112,6540 19271,9116 7239,2576 14538,5222 22057,7938 7439,2706 14828,5841 21987,9256 7229,3475 13640,7858 19271,13081 5642,5212 10155,11613 13650,19271 3475,7579 5212,16905 5212,27898 0,11832 -1877,22896 -5711,33121 -3824,10305 -9326,19211 -16625,26790 -7239,7659 -16216,13630 -26790,17953 -10574,4373 -22686,6540 -36316,6540 -16416,0 -31523,-3135 -45303,-9466 -13839,-6331 -25532,-14888 -35208,-25602l10784 -17534c979,-1458 2157,-2646 3625,-3555 1388,-899 3065,-1318 5003,-1318 2576,0 5432,1388 8637,4174 3195,2786 7159,5851 11892,9186 4803,3335 10504,6331 17254,9186 6750,2786 14748,4174 24144,4174 7868,0 14898,-1178 21019,-3485 6121,-2297 11263,-5562 15587,-9805 4234,-4184 7509,-9256 9805,-15167 2227,-5921 3345,-12461 3345,-19691 0,-8008 -1747,-14618 -5222,-19771 -3485,-5142 -7998,-9456 -13640,-12941 -5632,-3475 -12032,-6400 -19271,-8767 -7169,-2356 -14548,-4863 -21987,-7439 -7519,-2576 -14818,-5502 -22057,-8837 -7169,-3345 -13570,-7719 -19281,-13150 -5622,-5432 -10155,-12182 -13630,-20180 -3475,-8068 -5222,-18013 -5222,-29985 0,-9396 1817,-18512 5362,-27419 3475,-8907 8627,-16765 15377,-23655 6680,-6890 15028,-12392 24843,-16495 9875,-4164 21149,-6261 33949,-6261 14269,0 27349,2436 39252,7169 11892,4733 22197,11693 30884,20809l-9186 17324zm286184 0c-2017,3754 -4793,5702 -8348,5702 -2017,0 -4453,-1038 -7239,-3205 -2786,-2077 -6191,-4373 -10225,-6880 -3964,-2516 -8837,-4873 -14478,-6960 -5622,-2087 -12382,-3135 -20240,-3135 -7519,0 -14059,1048 -19691,3135 -5632,2087 -10305,5013 -14059,8767 -3754,3754 -6540,8068 -8487,13081 -1877,4943 -2856,10295 -2856,16006 0,7449 1747,13640 5222,18502 3475,4943 8008,9116 13630,12521 5642,3485 12112,6540 19281,9116 7239,2576 14538,5222 22057,7938 7439,2706 14818,5841 21987,9256 7229,3475 13640,7858 19271,13081 5642,5212 10155,11613 13640,19271 3475,7579 5222,16905 5222,27898 0,11832 -1887,22896 -5711,33121 -3824,10305 -9326,19211 -16625,26790 -7249,7659 -16216,13630 -26790,17953 -10574,4373 -22686,6540 -36316,6540 -16426,0 -31533,-3135 -45303,-9466 -13839,-6331 -25532,-14888 -35208,-25602l10784 -17534c979,-1458 2157,-2646 3615,-3555 1398,-899 3065,-1318 5013,-1318 2576,0 5432,1388 8637,4174 3195,2786 7159,5851 11892,9186 4803,3335 10504,6331 17254,9186 6750,2786 14748,4174 24144,4174 7858,0 14898,-1178 21019,-3485 6121,-2297 11263,-5562 15587,-9805 4234,-4184 7509,-9256 9805,-15167 2217,-5921 3345,-12461 3345,-19691 0,-8008 -1747,-14618 -5222,-19771 -3485,-5142 -7998,-9456 -13640,-12941 -5632,-3475 -12032,-6400 -19271,-8767 -7169,-2356 -14548,-4863 -21997,-7439 -7509,-2576 -14808,-5502 -22057,-8837 -7159,-3345 -13560,-7719 -19271,-13150 -5632,-5432 -10155,-12182 -13630,-20180 -3475,-8068 -5222,-18013 -5222,-29985 0,-9396 1817,-18512 5362,-27419 3475,-8907 8627,-16765 15377,-23655 6680,-6890 15028,-12392 24843,-16495 9875,-4164 21149,-6261 33949,-6261 14259,0 27339,2436 39242,7169 11902,4733 22197,11693 30894,20809l-9186 17324zm385476 91703c0,20110 -2996,38543 -8907,55248 -5921,16695 -14269,31104 -25053,43216 -10774,12102 -23795,21498 -38972,28248 -15088,6740 -31932,10085 -50435,10085 -18303,0 -35138,-3345 -50305,-10085 -15247,-6750 -28318,-16146 -39172,-28248 -10864,-12112 -19281,-26521 -25252,-43216 -5991,-16705 -8977,-35138 -8977,-55248 0,-19970 2986,-38333 8977,-55108 5971,-16835 14389,-31313 25252,-43425 10854,-12162 23924,-21628 39172,-28388 15167,-6670 32002,-10085 50305,-10085 18502,0 35347,3415 50435,10085 15177,6760 28198,16226 38972,28388 10784,12112 19132,26590 25053,43425 5911,16775 8907,35138 8907,55108zm-37924 0c0,-16276 -2017,-30964 -6051,-43905 -3974,-13011 -9676,-24004 -17125,-33051 -7369,-9047 -16346,-15936 -26850,-20799 -10584,-4803 -22347,-7249 -35417,-7249 -13011,0 -24843,2446 -35347,7249 -10504,4863 -19551,11753 -27000,20799 -7509,9047 -13220,20040 -17254,33051 -3974,12941 -5981,27629 -5981,43905 0,16346 2007,30964 5981,43975 4034,12941 9745,23934 17254,32981 7449,9047 16495,15936 27000,20729 10504,4733 22337,7109 35347,7109 13071,0 24833,-2376 35417,-7109 10504,-4793 19481,-11683 26850,-20729 7449,-9047 13150,-20040 17125,-32981 4034,-13011 6051,-27629 6051,-43975zm214021 22606l0 111334 -37085 0 0 -267881 73341 0c16346,0 30405,1747 42307,5222 11892,3475 21698,8407 29356,14888 7719,6470 13360,14259 17045,23445 3625,9186 5502,19481 5502,30894 0,9326 -1388,18093 -4174,26301 -2786,8138 -6820,15447 -12042,21987 -5222,6550 -11623,12102 -19271,16845 -7589,4653 -16206,8208 -25891,10704 2307,1468 4463,3135 6550,4943 2017,1877 3964,4034 5911,6680l71953 105972 -33061 0c-6331,0 -11343,-2506 -14888,-7509l-63386 -95398c-2017,-2996 -4244,-5152 -6610,-6470 -2366,-1248 -5911,-1957 -10714,-1957l-24843 0zm0 -27060l34868 0c9736,0 18363,-1258 25742,-3764 7439,-2566 13630,-6121 18712,-10704 5003,-4663 8777,-10155 11273,-16625 2506,-6470 3764,-13580 3764,-21298 0,-31932 -19351,-47949 -58103,-47949l-36256 0 0 100341zm325086 138394l-37085 0 0 -267881 37085 0 0 267881zm368561 0l-28737 0c-3285,0 -5851,-829 -7868,-2436 -1947,-1668 -3475,-3685 -4583,-6121l-22836 -64424 -110485 0 -22606 64214c-849,2297 -2376,4314 -4603,6121 -2227,1747 -4943,2646 -8008,2646l-28797 0 100550 -267881 37704 0 100271 267881zm-165114 -99502l91773 0 -37924 -107770c-1388,-3275 -2716,-7109 -4104,-11483 -1398,-4324 -2646,-8977 -3894,-14059 -1328,5152 -2716,9955 -4044,14269 -1388,4373 -2646,8208 -3894,11413l-37914 107630zm516701 -11832l0 111334 -37075 0 0 -267881 73331 0c16346,0 30405,1747 42307,5222 11902,3475 21708,8407 29356,14888 7728,6470 13360,14259 17055,23445 3615,9186 5492,19481 5492,30894 0,9326 -1388,18093 -4174,26301 -2786,8138 -6820,15447 -12042,21987 -5222,6550 -11623,12102 -19271,16845 -7579,4653 -16206,8208 -25881,10704 2297,1468 4453,3135 6540,4943 2017,1877 3964,4034 5921,6680l71943 105972 -33061 0c-6331,0 -11343,-2506 -14888,-7509l-63386 -95398c-2017,-2996 -4234,-5152 -6610,-6470 -2366,-1248 -5911,-1957 -10714,-1957l-24843 0zm0 -27060l34868 0c9736,0 18373,-1258 25742,-3764 7439,-2566 13630,-6121 18712,-10704 5013,-4663 8777,-10155 11283,-16625 2496,-6470 3754,-13580 3754,-21298 0,-31932 -19341,-47949 -58103,-47949l-36256 0 0 100341zm440105 -129487l0 30195 -119272 0 0 87879 96027 0 0 29157 -96027 0 0 90445 119472 0 -200 30205 -156567 0 0 -267881 156567 0zm353673 242000c-13081,9676 -27010,16835 -41678,21568 -14758,4803 -30754,7169 -48019,7169 -20799,0 -39581,-3345 -56356,-10015 -16835,-6610 -31104,-16006 -42936,-27978 -11822,-12032 -20939,-26441 -27339,-43206 -6400,-16845 -9526,-35347 -9526,-55597 0,-20380 3055,-38962 9256,-55737 6191,-16765 15018,-31174 26501,-43206 11483,-12042 25322,-21368 41678,-28048 16286,-6670 34588,-10015 54828,-10015 10295,0 19900,839 28667,2366 8767,1598 16845,3824 24354,6750 7439,2926 14339,6470 20669,10714 6331,4184 12182,8907 17664,14059l-10434 16695c-1598,2716 -3824,4393 -6540,5082 -2706,699 -5632,70 -8767,-1817 -3125,-1797 -6540,-3884 -10295,-6400 -3685,-2566 -8138,-4933 -13290,-7159 -5212,-2227 -11343,-4174 -18363,-5781 -7109,-1658 -15447,-2506 -25123,-2506 -14129,0 -26930,2506 -38413,7389 -11473,4863 -21218,11892 -29356,21009 -8078,9037 -14269,20110 -18652,33121 -4314,12941 -6470,27479 -6470,43485 0,16695 2227,31723 6820,44943 4523,13300 11054,24494 19551,33680 8487,9116 18712,16136 30684,20949 11972,4873 25322,7229 40150,7229 11413,0 21638,-1318 30545,-3964 8977,-2646 17803,-6331 26511,-11064l0 -58723 -38473 0c-2516,0 -4463,-699 -5921,-2087 -1528,-1318 -2297,-2996 -2297,-5082l0 -20939 80370 0 0 103116zm250068 -3475c10724,0 20320,-1887 28807,-5572 8487,-3754 15657,-8977 21498,-15727 5841,-6740 10305,-14748 13370,-23934 3055,-9256 4583,-19481 4583,-30614l0 -162678 37155 0 0 162678c0,15517 -2506,29846 -7369,42996 -4873,13220 -11832,24633 -20879,34309 -9047,9596 -20100,17184 -33121,22676 -13081,5502 -27769,8288 -44044,8288 -16346,0 -30964,-2786 -43975,-8288 -12941,-5492 -24004,-13081 -33121,-22676 -9037,-9676 -16076,-21089 -20939,-34309 -4943,-13150 -7379,-27479 -7379,-42996l0 -162678 37085 0 0 162468c0,11133 1538,21358 4603,30684 3055,9326 7509,17334 13350,24074 5851,6750 13011,11972 21498,15727 8497,3685 18163,5572 28877,5572zm293553 -1817l103326 0 0 31174 -140481 0 0 -267881 37155 0 0 236708zm444698 31174l-28737 0c-3275,0 -5851,-829 -7868,-2436 -1937,-1668 -3475,-3685 -4583,-6121l-22836 -64424 -110485 0 -22606 64214c-849,2297 -2376,4314 -4603,6121 -2217,1747 -4933,2646 -7998,2646l-28807 0 100550 -267881 37704 0 100271 267881zm-165114 -99502l91773 0 -37924 -107770c-1388,-3275 -2716,-7109 -4104,-11483 -1388,-4324 -2646,-8977 -3894,-14059 -1328,5152 -2716,9955 -4044,14269 -1388,4373 -2636,8208 -3894,11413l-37914 107630zm459506 -168379l0 31034 -78134 0 0 236847 -37304 0 0 -236847 -78273 0 0 -31034 193712 0zm360983 133941c0,20110 -2996,38543 -8907,55248 -5921,16695 -14259,31104 -25053,43216 -10774,12102 -23785,21498 -38962,28248 -15098,6740 -31942,10085 -50435,10085 -18303,0 -35148,-3345 -50315,-10085 -15237,-6750 -28318,-16146 -39172,-28248 -10864,-12112 -19271,-26521 -25252,-43216 -5991,-16705 -8977,-35138 -8977,-55248 0,-19970 2986,-38333 8977,-55108 5981,-16835 14389,-31313 25252,-43425 10854,-12162 23934,-21628 39172,-28388 15167,-6670 32012,-10085 50315,-10085 18492,0 35337,3415 50435,10085 15177,6760 28188,16226 38962,28388 10794,12112 19132,26590 25053,43425 5911,16775 8907,35138 8907,55108zm-37924 0c0,-16276 -2017,-30964 -6051,-43905 -3964,-13011 -9676,-24004 -17115,-33051 -7379,-9047 -16356,-15936 -26860,-20799 -10574,-4803 -22337,-7249 -35407,-7249 -13021,0 -24843,2446 -35357,7249 -10504,4863 -19551,11753 -26990,20799 -7519,9047 -13230,20040 -17264,33051 -3964,12941 -5981,27629 -5981,43905 0,16346 2017,30964 5981,43975 4034,12941 9745,23934 17264,32981 7439,9047 16485,15936 26990,20729 10514,4733 22337,7109 35357,7109 13071,0 24833,-2376 35407,-7109 10504,-4793 19481,-11683 26860,-20729 7439,-9047 13150,-20040 17115,-32981 4034,-13011 6051,-27629 6051,-43975zm-16485 -214650l-63805 56496c-2087,1737 -4034,2846 -5851,3265 -1797,359 -4104,569 -6820,569l-25672 0 44813 -53800c1258,-1378 2436,-2496 3475,-3335 1118,-899 2297,-1598 3555,-2077 1318,-499 2706,-779 4314,-919 1528,-140 3405,-200 5562,-200l40430 0zm230517 237257l0 111334 -37085 0 0 -267881 73331 0c16346,0 30405,1747 42307,5222 11902,3475 21708,8407 29356,14888 7728,6470 13360,14259 17055,23445 3615,9186 5492,19481 5492,30894 0,9326 -1388,18093 -4174,26301 -2786,8138 -6820,15447 -12042,21987 -5212,6550 -11623,12102 -19271,16845 -7579,4653 -16206,8208 -25881,10704 2297,1468 4453,3135 6540,4943 2017,1877 3964,4034 5921,6680l71943 105972 -33061 0c-6331,0 -11333,-2506 -14888,-7509l-63386 -95398c-2017,-2996 -4234,-5152 -6610,-6470 -2366,-1248 -5911,-1957 -10704,-1957l-24843 0zm0 -27060l34858 0c9736,0 18373,-1258 25742,-3764 7439,-2566 13630,-6121 18712,-10704 5013,-4663 8777,-10155 11283,-16625 2496,-6470 3754,-13580 3754,-21298 0,-31932 -19341,-47949 -58103,-47949l-36246 0 0 100341zm325076 138394l-37085 0 0 -267881 37085 0 0 267881zm368561 0l-28737 0c-3275,0 -5851,-829 -7868,-2436 -1937,-1668 -3475,-3685 -4583,-6121l-22836 -64424 -110485 0 -22606 64214c-839,2297 -2376,4314 -4603,6121 -2217,1747 -4933,2646 -7998,2646l-28797 0 100540 -267881 37704 0 100271 267881zm-165114 -99502l91773 0 -37924 -107770c-1388,-3275 -2716,-7109 -4104,-11483 -1388,-4324 -2646,-8977 -3894,-14059 -1328,5152 -2716,9955 -4044,14269 -1388,4373 -2636,8208 -3894,11413l-37914 107630z"/>
   <path fill="#666666" fill-rule="nonzero" d="M2967312 3125317l0 -600246 113002 0 0 600246 -113002 0zm41289 -238125l0 -109058 307442 0 0 109058 -307442 0zm0 -253063l0 -109058 352954 0 0 109058 -352954 0zm422990 491189l0 -428482 121309 0 0 428482 -121309 0zm241081 -309140c-5502,-5492 -12262,-9726 -20150,-12402 -8028,-2816 -17334,-4224 -27759,-4224 -22826,0 -40440,7469 -52981,22117 -12541,14798 -18882,35228 -18882,61299l-8587 -111454c11832,-25222 27050,-45093 45792,-59461 18732,-14229 39451,-21418 62417,-21418 17614,0 33530,2816 48048,8457 14369,5632 27190,13949 38183,24933l-66082 92153zm355501 309140l0 -271656c0,-19731 -6490,-35088 -19591,-45792 -13100,-10714 -31843,-16066 -56356,-16066 -15926,0 -31843,2536 -47489,7609 -15637,5072 -29586,12402 -41708,22117l-70166 -69037c17334,-19441 40010,-34658 67909,-45512 27908,-10854 58902,-16346 93141,-16346 56077,0 99622,13949 130616,41708 30994,27759 46501,67070 46501,117655l0 275320 -102857 0zm-119352 6201c-45652,0 -79891,-10854 -102717,-32691 -22826,-21698 -34239,-54948 -34239,-99761 0,-42686 12681,-74529 38183,-95668 25362,-20999 63555,-31563 114559,-31563l107220 0 5781 86232 -112582 0c-17184,0 -29866,3385 -38463,10005 -8457,6620 -12821,16905 -12821,30994 0,13949 5352,24384 16206,31144 10704,6760 26910,10005 48608,10005 30015,0 52412,-3385 67350,-10285 14798,-6910 22267,-17614 22267,-32132l8727 62287c-1687,16196 -9017,29726 -21977,40290 -12961,10574 -28747,18463 -47619,23535 -18882,5072 -38333,7609 -58483,7609zm333523 -6201l0 -428482 113142 0 0 428482 -113142 0zm247701 0l0 -259683c0,-21139 -5921,-37474 -17754,-48887 -11832,-11413 -28887,-17194 -51144,-17194 -21278,0 -37484,5921 -48757,17614 -11273,11693 -16905,28178 -16905,49317l-8737 -94969c12402,-25782 27479,-45792 45233,-59881 17754,-13949 40859,-20999 69177,-20999 45093,0 80031,15217 104834,45652 24793,30435 37195,73411 37195,128928l0 260103 -113142 0zm405806 6201c-61299,0 -108918,-17334 -142737,-51853 -33959,-34519 -50864,-83416 -50864,-146682l0 -45792c0,-62836 16905,-111174 50864,-145413 33820,-34089 81439,-51144 142737,-51144 35218,0 67060,5921 95388,17754 28318,11832 51004,28747 68049,50724l0 0 -72981 71014 0 0c-10145,-9576 -22407,-17045 -36496,-22407 -14229,-5352 -29027,-8168 -44384,-8168 -28597,0 -50864,7748 -66501,22966 -15647,15217 -23535,36775 -23535,64674l0 45792c0,28607 7888,50724 23535,66231 15637,15497 37904,23385 66501,23385 15357,0 30155,-2956 44384,-8737 14089,-5771 26351,-14089 36496,-24793l0 0 72981 75098 0 0c-16765,21558 -39311,38043 -67769,49736 -28607,11693 -60450,17614 -95668,17614zm233612 -493296l0 -113152 113142 0 0 113152 -113142 0zm0 487095l0 -428482 113142 0 0 428482 -113142 0zm382261 6201c-38463,0 -75098,-5212 -110046,-15497 -34798,-10285 -64394,-24663 -88908,-43116l0 0 69746 -87080 0 0c20709,13240 42267,23385 64813,30574 22546,7050 44104,10714 64394,10714 26491,0 46920,-2966 61568,-8877 14518,-5921 21847,-14099 21847,-24663 0,-12541 -5072,-21278 -15078,-25921 -10005,-4653 -23106,-7758 -39451,-9306 -16206,-1548 -33400,-3525 -51573,-6061 -18463,-2386 -36635,-5352 -54669,-8877 -18033,-3375 -34519,-9017 -49317,-16905 -14938,-7748 -26770,-19581 -35507,-35507 -8877,-15777 -13250,-37334 -13250,-64534 0,-43256 15367,-76646 45802,-100321 30574,-23675 73830,-35507 129627,-35507 32831,0 65093,4793 96796,14518 31843,9576 60310,23245 85243,40859l0 0 -67210 82148 0 0c-18732,-10574 -38323,-18602 -58613,-24384 -20430,-5771 -40010,-8737 -58613,-8737 -22826,0 -40580,2536 -53261,7609 -12681,5222 -19022,12541 -19022,22127 0,8308 4364,14508 13240,18602 8737,4084 20290,7040 34668,8877 14229,1827 29726,3655 46211,5632 19022,2117 38043,4793 57345,8028 19311,3105 36925,8877 53121,17055 16066,8308 29027,20849 38892,37614 10005,16775 14938,39881 14938,69327 0,44813 -16066,79611 -48048,104415 -32122,24793 -77355,37195 -135688,37195zm455682 0c-61299,0 -108918,-17334 -142737,-51853 -33959,-34519 -50864,-83416 -50864,-146682l0 -45792c0,-62836 16905,-111174 50864,-145413 33820,-34089 81439,-51144 142737,-51144 35218,0 67060,5921 95388,17754 28318,11832 51004,28747 68049,50724l0 0 -72981 71014 0 0c-10145,-9576 -22407,-17045 -36496,-22407 -14229,-5352 -29027,-8168 -44384,-8168 -28597,0 -50864,7748 -66501,22966 -15647,15217 -23535,36775 -23535,64674l0 45792c0,28607 7888,50724 23535,66231 15637,15497 37904,23385 66501,23385 15357,0 30155,-2956 44384,-8737 14089,-5771 26351,-14089 36496,-24793l0 0 72981 75098 0 0c-16765,21558 -39311,38043 -67769,49736 -28607,11693 -60450,17614 -95668,17614zm412416 0c-58613,0 -104125,-16346 -136397,-48897 -32402,-32681 -48608,-78483 -48608,-137655l0 -69746c0,-58623 16206,-104125 48608,-136257 32272,-32262 77784,-48328 136397,-48328 58613,0 104125,16066 136387,48328 32412,32132 48478,77634 48478,136257l0 71014c0,58753 -16066,104405 -48478,136816 -32262,32262 -77774,48468 -136387,48468zm0 -108918c22546,0 40150,-6760 52831,-20150 12681,-13240 19022,-32122 19022,-56216l0 -71014c0,-23954 -6341,-42557 -19022,-55797 -12681,-13250 -30285,-19870 -52831,-19870 -22826,0 -40580,6620 -53121,19870 -12541,13240 -18742,31843 -18742,55797l0 71014c0,24094 6201,42976 18742,56216 12541,13390 30295,20150 53121,20150zm523451 102717l0 -600246 113002 0 0 600246 -113002 0zm50305 0l0 -108918 351686 0 0 108918 -351686 0zm671959 0l0 -428482 112722 0 0 428482 -112722 0zm-132872 -428482l0 260522c0,20579 5771,36635 17474,48048 11693,11413 28178,17194 49456,17194 21129,0 37474,-5921 48887,-17614 11413,-11693 17055,-28458 17055,-50165l5771 93700c-7179,21139 -19721,40300 -37764,57355 -18033,17045 -41279,25642 -69886,25642 -46071,0 -81579,-14938 -106521,-44524 -25083,-29736 -37614,-71583 -37614,-125543l0 -264616 113142 0zm538249 434683c-61299,0 -108918,-17334 -142737,-51853 -33959,-34519 -50864,-83416 -50864,-146682l0 -45792c0,-62836 16905,-111174 50864,-145413 33820,-34089 81439,-51144 142737,-51144 35218,0 67060,5921 95388,17754 28318,11832 51004,28747 68049,50724l0 0 -72981 71014 0 0c-10145,-9576 -22407,-17045 -36496,-22407 -14229,-5352 -29027,-8168 -44384,-8168 -28597,0 -50864,7748 -66501,22966 -15647,15217 -23535,36775 -23535,64674l0 45792c0,28607 7888,50724 23535,66231 15637,15497 37904,23385 66501,23385 15357,0 30155,-2956 44384,-8737 14089,-5771 26351,-14089 36496,-24793l0 0 72981 75098 0 0c-16765,21558 -39311,38043 -67769,49736 -28607,11693 -60450,17614 -95668,17614zm423549 0c-62287,0 -110476,-16765 -144715,-50165 -34239,-33390 -51423,-80730 -51423,-141749l0 -48328c0,-63825 16485,-113281 49317,-148229 32971,-34938 79322,-52412 139353,-52412 56636,0 100600,20859 131454,62557 31004,41708 46501,100331 46501,175988l0 28178 -293074 0 0 -76366 189797 0 -1128 -10005c-3105,-24514 -10854,-43535 -23116,-57065 -12392,-13660 -29167,-20430 -50435,-20430 -27200,0 -48328,8038 -63406,24234 -14938,16346 -22407,39311 -22407,69047l0 54389c0,29167 8168,51853 24514,67769 16346,15926 39311,23954 68768,23954 15068,0 30145,-2676 44943,-8028 14938,-5352 28318,-13110 40440,-22966l0 0 73970 65652 0 0c-22257,20290 -47340,36076 -75098,47210 -27898,11123 -55937,16765 -84255,16765zm269549 -6201l0 -428482 113142 0 0 428482 -113142 0zm247701 0l0 -259683c0,-21139 -5921,-37474 -17754,-48887 -11832,-11413 -28887,-17194 -51144,-17194 -21278,0 -37484,5921 -48757,17614 -11273,11693 -16905,28178 -16905,49317l-8737 -94969c12402,-25782 27479,-45792 45233,-59881 17754,-13949 40859,-20999 69177,-20999 45093,0 80031,15217 104834,45652 24793,30435 37195,73411 37195,128928l0 260103 -113142 0zm460335 0l0 -271656c0,-19731 -6490,-35088 -19591,-45792 -13100,-10714 -31843,-16066 -56356,-16066 -15926,0 -31843,2536 -47489,7609 -15637,5072 -29586,12402 -41708,22117l-70166 -69037c17334,-19441 40010,-34658 67909,-45512 27908,-10854 58902,-16346 93141,-16346 56077,0 99622,13949 130616,41708 30994,27759 46501,67070 46501,117655l0 275320 -102857 0zm-119352 6201c-45652,0 -79891,-10854 -102717,-32691 -22826,-21698 -34239,-54948 -34239,-99761 0,-42686 12681,-74529 38183,-95668 25362,-20999 63555,-31563 114559,-31563l107220 0 5781 86232 -112582 0c-17184,0 -29866,3385 -38463,10005 -8457,6620 -12821,16905 -12821,30994 0,13949 5352,24384 16206,31144 10704,6760 26910,10005 48608,10005 30015,0 52412,-3385 67350,-10285 14798,-6910 22267,-17614 22267,-32132l8727 62287c-1687,16196 -9017,29726 -21977,40290 -12961,10574 -28747,18463 -47619,23535 -18882,5072 -38333,7609 -58483,7609z"/>
  </g>
  <rect fill="none" y="-3" width="9563041" height="5032677"/>
  <path fill="black" fill-rule="nonzero" d="M2873791 992243l0 -206443 77954 0c13690,0 24164,669 31423,1967 10145,1687 18642,4903 25522,9616 6870,4753 12392,11383 16575,19890 4184,8507 6251,17873 6251,28108 0,17494 -5582,32342 -16775,44454 -11153,12162 -31383,18213 -60600,18213l-52951 0 0 84195 -27399 0zm27399 -108409l53341 0c17684,0 30175,-3275 37624,-9855 7399,-6580 11103,-15806 11103,-27779 0,-8597 -2167,-15996 -6540,-22147 -4373,-6151 -10135,-10235 -17244,-12212 -4623,-1198 -13120,-1827 -25472,-1827l-52811 0 0 73820z"/>
  <path id="1" fill="black" fill-rule="nonzero" d="M3160684 973501c-9426,8028 -18502,13650 -27200,16965 -8697,3315 -18023,4953 -28018,4953 -16436,0 -29077,-3994 -37914,-12022 -8847,-7968 -13260,-18213 -13260,-30654 0,-7309 1678,-13979 4993,-20040 3365,-6051 7738,-10864 13120,-14508 5432,-3655 11483,-6440 18263,-8318 4993,-1298 12541,-2546 22586,-3794 20470,-2406 35607,-5332 45263,-8697 100,-3465 150,-5672 150,-6590 0,-10275 -2406,-17534 -7209,-21768 -6490,-5711 -16146,-8547 -28927,-8547 -11972,0 -20809,2107 -26481,6291 -5721,4184 -9905,11583 -12641,22247l-24793 -3455c2257,-10624 5951,-19221 11143,-25762 5192,-6530 12691,-11533 22497,-15088 9755,-3505 21139,-5282 34019,-5282 12781,0 23205,1488 31233,4513 7978,3025 13889,6780 17634,11343 3754,4563 6390,10335 7928,17294 819,4334 1258,12112 1258,23315l0 33630c0,23505 529,38353 1578,44644 1008,6301 3125,12302 6201,18073l-26521 0c-2546,-5332 -4184,-11583 -4903,-18742zm-2017 -56226c-9226,3754 -23066,6920 -41518,9516 -10484,1488 -17883,3175 -22207,5042 -4324,1877 -7639,4613 -9995,8178 -2356,3605 -3555,7589 -3555,12012 0,6680 2546,12302 7689,16765 5142,4473 12641,6730 22487,6730 9755,0 18453,-2117 26101,-6390 7589,-4224 13210,-10045 16765,-17394 2736,-5721 4084,-14129 4084,-25232l150 -9226zm-53341 -93131l18453 -39501 33440 0 -30844 39501 -21049 0z"/>
  <path id="2" fill="black" fill-rule="nonzero" d="M3218638 1004644l24504 3455c1018,7599 3894,13120 8607,16625 6291,4663 14898,7020 25802,7020 11733,0 20809,-2356 27200,-7020 6390,-4653 10724,-11243 12981,-19651 1298,-5142 1917,-15956 1827,-32442 -11103,13071 -24893,19611 -41428,19611 -20569,0 -36526,-7399 -47769,-22247 -11293,-14808 -16915,-32581 -16915,-53301 0,-14269 2596,-27439 7738,-39501 5142,-12062 12641,-21328 22447,-27918 9795,-6580 21328,-9845 34598,-9845 17634,0 32192,7209 43635,21618l0 -18453 23355 0 0 129228c0,23305 -2356,39791 -7119,49496 -4703,9706 -12252,17394 -22487,23016 -10285,5622 -22926,8457 -37914,8457 -17833,0 -32202,-3984 -43156,-12012 -11004,-7978 -16296,-20040 -15906,-36136zm20759 -89766c0,19551 3894,33830 11683,42816 7828,8987 17584,13500 29306,13500 11683,0 21438,-4473 29366,-13410 7878,-8937 11822,-22966 11822,-42097 0,-18253 -4084,-32052 -12212,-41318 -8118,-9276 -17923,-13889 -29356,-13889 -11293,0 -20859,4563 -28787,13690 -7878,9136 -11822,22686 -11822,40709z"/>
  <path id="3" fill="black" fill-rule="nonzero" d="M3383662 814627l0 -28827 25372 0 0 28827 -25372 0zm0 177616l0 -149647 25372 0 0 149647 -25372 0z"/>
  <path id="4" fill="black" fill-rule="nonzero" d="M3447717 992243l0 -149647 22776 0 0 21248c10954,-16296 26810,-24414 47529,-24414 9037,0 17294,1628 24843,4853 7539,3215 13210,7499 16965,12731 3744,5242 6390,11483 7878,18692 909,4713 1398,12931 1398,24653l0 91883 -25372 0 0 -90925c0,-10325 -969,-18063 -2936,-23156 -1967,-5092 -5482,-9176 -10474,-12262 -5003,-3025 -10914,-4563 -17634,-4563 -10764,0 -20040,3415 -27878,10285 -7828,6830 -11723,19850 -11723,38972l0 81648 -25372 0z"/>
  <path id="5" fill="black" fill-rule="nonzero" d="M3705822 973501c-9426,8028 -18502,13650 -27200,16965 -8697,3315 -18023,4953 -28018,4953 -16436,0 -29077,-3994 -37914,-12022 -8847,-7968 -13260,-18213 -13260,-30654 0,-7309 1678,-13979 4993,-20040 3365,-6051 7738,-10864 13120,-14508 5432,-3655 11483,-6440 18263,-8318 4993,-1298 12541,-2546 22586,-3794 20470,-2406 35607,-5332 45263,-8697 100,-3465 150,-5672 150,-6590 0,-10275 -2406,-17534 -7209,-21768 -6490,-5711 -16146,-8547 -28927,-8547 -11972,0 -20809,2107 -26481,6291 -5721,4184 -9905,11583 -12641,22247l-24793 -3455c2257,-10624 5951,-19221 11143,-25762 5192,-6530 12691,-11533 22497,-15088 9755,-3505 21139,-5282 34019,-5282 12781,0 23205,1488 31233,4513 7978,3025 13889,6780 17634,11343 3754,4563 6390,10335 7928,17294 819,4334 1258,12112 1258,23315l0 33630c0,23505 529,38353 1578,44644 1008,6301 3125,12302 6201,18073l-26521 0c-2546,-5332 -4184,-11583 -4903,-18742zm-2017 -56226c-9226,3754 -23066,6920 -41518,9516 -10484,1488 -17883,3175 -22207,5042 -4324,1877 -7639,4613 -9995,8178 -2356,3605 -3555,7589 -3555,12012 0,6680 2546,12302 7689,16765 5142,4473 12641,6730 22487,6730 9755,0 18453,-2117 26101,-6390 7589,-4224 13210,-10045 16765,-17394 2736,-5721 4084,-14129 4084,-25232l150 -9226z"/>
  <path id="6" fill="black" fill-rule="nonzero" d="M3950618 943805l26241 3455c-4084,15237 -11733,27110 -22876,35517 -11153,8407 -25372,12641 -42726,12641 -21818,0 -39112,-6730 -51893,-20190 -12791,-13400 -19181,-32292 -19181,-56556 0,-25083 6440,-44594 19371,-58433 12931,-13889 29696,-20809 50315,-20809 19940,0 36236,6770 48867,20370 12641,13600 18982,32731 18982,57385 0,1488 -50,3744 -140,6720l-111444 0c969,16396 5582,28977 13939,37684 8318,8697 18742,13071 31184,13071 9276,0 17204,-2456 23745,-7359 6580,-4903 11772,-12731 15617,-23495zm-83036 -40659l83326 0c-1108,-12591 -4324,-22007 -9566,-28298 -8028,-9755 -18502,-14658 -31333,-14658 -11623,0 -21378,3894 -29316,11673 -7878,7788 -12252,18213 -13110,31283z"/>
  <path id="7" fill="black" fill-rule="nonzero" d="M4008911 992243l0 -149647 22776 0 0 21149c4663,-7309 10904,-13220 18692,-17634 7788,-4473 16625,-6680 26580,-6680 11044,0 20130,2307 27200,6870 7059,4613 12062,11004 14938,19271 11922,-17444 27349,-26141 46371,-26141 14898,0 26391,4084 34369,12302 8018,8218 12062,20849 12062,37914l0 102597 -25382 0 0 -94190c0,-10085 -859,-17394 -2496,-21867 -1628,-4463 -4613,-8018 -8987,-10764 -4324,-2736 -9416,-4084 -15227,-4084 -10574,0 -19321,3515 -26291,10474 -6970,7020 -10424,18213 -10424,33600l0 86831 -25372 0 0 -97115c0,-11253 -2067,-19711 -6201,-25332 -4134,-5622 -10914,-8457 -20280,-8457 -7109,0 -13700,1877 -19751,5622 -6061,3754 -10434,9226 -13170,16485 -2686,7209 -4034,17634 -4034,31233l0 77565 -25372 0z"/>
  <path id="8" fill="black" fill-rule="nonzero" d="M4425790 992243l0 -18982c-9466,14748 -23395,22157 -41808,22157 -11912,0 -22876,-3275 -32821,-9855 -9995,-6530 -17734,-15717 -23255,-27439 -5482,-11772 -8218,-25272 -8218,-40560 0,-14898 2496,-28398 7449,-40560 4993,-12112 12441,-21428 22397,-27869 9895,-6490 21049,-9706 33300,-9706 9037,0 17055,1917 24074,5711 7020,3804 12731,8797 17154,14898l0 -74239 25372 0 0 206443 -23645 0zm-80151 -74629c0,19122 4034,33400 12152,42866 8078,9466 17644,14179 28647,14179 11093,0 20519,-4523 28298,-13560 7738,-9027 11633,-22826 11633,-41368 0,-20380 -3944,-35367 -11872,-44933 -7878,-9566 -17634,-14319 -29216,-14319 -11293,0 -20709,4563 -28298,13740 -7549,9176 -11343,23645 -11343,43395z"/>
  <path id="9" fill="black" fill-rule="nonzero" d="M4591633 943805l26241 3455c-4084,15237 -11733,27110 -22876,35517 -11153,8407 -25372,12641 -42726,12641 -21818,0 -39112,-6730 -51893,-20190 -12791,-13400 -19181,-32292 -19181,-56556 0,-25083 6440,-44594 19371,-58433 12931,-13889 29696,-20809 50315,-20809 19940,0 36236,6770 48867,20370 12641,13600 18982,32731 18982,57385 0,1488 -50,3744 -140,6720l-111444 0c969,16396 5582,28977 13939,37684 8318,8697 18742,13071 31184,13071 9276,0 17204,-2456 23745,-7359 6580,-4903 11772,-12731 15617,-23495zm-83036 -40659l83326 0c-1108,-12591 -4324,-22007 -9566,-28298 -8028,-9755 -18502,-14658 -31333,-14658 -11623,0 -21378,3894 -29316,11673 -7878,7788 -12252,18213 -13110,31283z"/>
  <path id="10" fill="black" fill-rule="nonzero" d="M4639832 947549l25083 -4034c1398,10045 5342,17734 11772,23116 6440,5332 15477,8028 27010,8028 11683,0 20330,-2356 26001,-7119 5622,-4703 8457,-10285 8457,-16675 0,-5711 -2546,-10235 -7599,-13500 -3555,-2257 -12202,-5092 -25941,-8607 -18552,-4653 -31383,-8697 -38593,-12102 -7159,-3465 -12591,-8168 -16286,-14229 -3704,-6001 -5582,-12681 -5582,-19990 0,-6680 1538,-12831 4563,-18502 3085,-5672 7209,-10375 12451,-14129 3944,-2886 9326,-5332 16096,-7349 6830,-2017 14079,-3025 21867,-3025 11723,0 22007,1678 30854,5092 8887,3365 15427,7978 19651,13740 4184,5821 7109,13550 8697,23265l-24793 3455c-1108,-7788 -4373,-13889 -9755,-18263 -5382,-4373 -12981,-6530 -22826,-6530 -11583,0 -19900,1917 -24843,5761 -4953,3844 -7449,8368 -7449,13510 0,3265 1008,6241 3075,8887 2067,2696 5282,4953 9706,6730 2546,959 9945,3125 22347,6480 17873,4763 30365,8707 37484,11733 7109,3025 12681,7499 16725,13260 4084,5811 6101,13021 6101,21678 0,8407 -2456,16336 -7399,23785 -4953,7449 -12062,13210 -21338,17294 -9326,4094 -19850,6111 -31573,6111 -19421,0 -34269,-4044 -44454,-12062 -10185,-8078 -16675,-19990 -19511,-35807z"/>
  <path id="11" fill="black" fill-rule="nonzero" d="M4896160 943805l26241 3455c-4084,15237 -11733,27110 -22876,35517 -11153,8407 -25372,12641 -42726,12641 -21818,0 -39112,-6730 -51893,-20190 -12791,-13400 -19181,-32292 -19181,-56556 0,-25083 6440,-44594 19371,-58433 12931,-13889 29696,-20809 50315,-20809 19940,0 36236,6770 48867,20370 12641,13600 18982,32731 18982,57385 0,1488 -50,3744 -140,6720l-111444 0c969,16396 5582,28977 13939,37684 8318,8697 18742,13071 31184,13071 9276,0 17204,-2456 23745,-7359 6580,-4903 11772,-12731 15617,-23495zm-83036 -40659l83326 0c-1108,-12591 -4324,-22007 -9566,-28298 -8028,-9755 -18502,-14658 -31333,-14658 -11623,0 -21378,3894 -29316,11673 -7878,7788 -12252,18213 -13110,31283z"/>
  <path id="12" fill="black" fill-rule="nonzero" d="M4954453 992243l0 -149647 22776 0 0 21248c10954,-16296 26810,-24414 47529,-24414 9037,0 17294,1628 24843,4853 7539,3215 13210,7499 16965,12731 3744,5242 6390,11483 7878,18692 909,4713 1398,12931 1398,24653l0 91883 -25372 0 0 -90925c0,-10325 -969,-18063 -2936,-23156 -1967,-5092 -5482,-9176 -10474,-12262 -5003,-3025 -10914,-4563 -17634,-4563 -10764,0 -20040,3415 -27878,10285 -7828,6830 -11723,19850 -11723,38972l0 81648 -25372 0z"/>
  <path id="13" fill="black" fill-rule="nonzero" d="M5155703 992243l-56456 -149647 27150 0 32002 89627c3455,9656 6680,19701 9606,30135 2267,-7888 5382,-17354 9476,-28458l33250 -91304 26041 0 -56656 149647 -24414 0z"/>
  <path id="14" fill="black" fill-rule="nonzero" d="M5249464 917424c0,-27639 7689,-48108 23116,-61419 12831,-11054 28547,-16575 47040,-16575 20519,0 37344,6720 50415,20180 13021,13410 19561,32002 19561,55697 0,19221 -2886,34309 -8657,45313 -5761,11004 -14169,19561 -25222,25662 -11004,6101 -23066,9136 -36096,9136 -20949,0 -37864,-6680 -50794,-20090 -12921,-13410 -19361,-32721 -19361,-57904zm25951 40c0,19132 4174,33450 12541,42916 8407,9516 18932,14279 31663,14279 12591,0 23066,-4763 31483,-14329 8358,-9556 12541,-24124 12541,-43675 0,-18453 -4234,-32442 -12641,-41908 -8407,-9516 -18882,-14269 -31383,-14269 -12731,0 -23255,4703 -31663,14169 -8368,9466 -12541,23745 -12541,42816z"/>
  <polygon id="15" fill="black" fill-rule="nonzero" points="5418762,992243 5418762,785800 5444134,785800 5444134,992243 "/>
  <path id="16" fill="black" fill-rule="nonzero" d="M5524285 992243l-56456 -149647 27150 0 32002 89627c3455,9656 6680,19701 9606,30135 2267,-7888 5382,-17354 9476,-28458l33250 -91304 26041 0 -56656 149647 -24414 0z"/>
  <path id="17" fill="black" fill-rule="nonzero" d="M5627561 814627l0 -28827 25372 0 0 28827 -25372 0zm0 177616l0 -149647 25372 0 0 149647 -25372 0z"/>
  <path id="18" fill="black" fill-rule="nonzero" d="M5691616 992243l0 -149647 22776 0 0 21149c4663,-7309 10904,-13220 18692,-17634 7788,-4473 16625,-6680 26580,-6680 11044,0 20130,2307 27200,6870 7059,4613 12062,11004 14938,19271 11922,-17444 27349,-26141 46371,-26141 14898,0 26391,4084 34369,12302 8018,8218 12062,20849 12062,37914l0 102597 -25382 0 0 -94190c0,-10085 -859,-17394 -2496,-21867 -1628,-4463 -4613,-8018 -8987,-10764 -4324,-2736 -9416,-4084 -15227,-4084 -10574,0 -19321,3515 -26291,10474 -6970,7020 -10424,18213 -10424,33600l0 86831 -25372 0 0 -97115c0,-11253 -2067,-19711 -6201,-25332 -4134,-5622 -10914,-8457 -20280,-8457 -7109,0 -13700,1877 -19751,5622 -6061,3754 -10434,9226 -13170,16485 -2686,7209 -4034,17634 -4034,31233l0 77565 -25372 0z"/>
  <path id="19" fill="black" fill-rule="nonzero" d="M6033866 943805l26241 3455c-4084,15237 -11733,27110 -22876,35517 -11153,8407 -25372,12641 -42726,12641 -21818,0 -39112,-6730 -51893,-20190 -12791,-13400 -19181,-32292 -19181,-56556 0,-25083 6440,-44594 19371,-58433 12931,-13889 29696,-20809 50315,-20809 19940,0 36236,6770 48867,20370 12641,13600 18982,32731 18982,57385 0,1488 -50,3744 -140,6720l-111444 0c969,16396 5582,28977 13939,37684 8318,8697 18742,13071 31184,13071 9276,0 17204,-2456 23745,-7359 6580,-4903 11772,-12731 15617,-23495zm-83036 -40659l83326 0c-1108,-12591 -4324,-22007 -9566,-28298 -8028,-9755 -18502,-14658 -31333,-14658 -11623,0 -21378,3894 -29316,11673 -7878,7788 -12252,18213 -13110,31283z"/>
  <path id="20" fill="black" fill-rule="nonzero" d="M6092159 992243l0 -149647 22776 0 0 21248c10954,-16296 26810,-24414 47529,-24414 9037,0 17294,1628 24843,4853 7539,3215 13210,7499 16965,12731 3744,5242 6390,11483 7878,18692 909,4713 1398,12931 1398,24653l0 91883 -25372 0 0 -90925c0,-10325 -969,-18063 -2936,-23156 -1967,-5092 -5482,-9176 -10474,-12262 -5003,-3025 -10914,-4563 -17634,-4563 -10764,0 -20040,3415 -27878,10285 -7828,6830 -11723,19850 -11723,38972l0 81648 -25372 0z"/>
  <path id="21" fill="black" fill-rule="nonzero" d="M6307588 969606l3465 22397c-7119,1488 -13510,2257 -19082,2257 -9176,0 -16286,-1438 -21388,-4373 -5042,-2926 -8597,-6730 -10664,-11483 -2067,-4763 -3075,-14758 -3075,-29985l0 -86212 -18742 0 0 -19611 18742 0 0 -36995 25372 -15237 0 52232 25372 0 0 19611 -25372 0 0 87649c0,7259 429,11922 1348,13989 859,2067 2307,3694 4324,4943 2017,1208 4903,1827 8647,1827 2786,0 6490,-330 11054,-1008z"/>
  <path id="22" fill="black" fill-rule="nonzero" d="M6323115 917424c0,-27639 7689,-48108 23116,-61419 12831,-11054 28547,-16575 47040,-16575 20519,0 37344,6720 50415,20180 13021,13410 19561,32002 19561,55697 0,19221 -2886,34309 -8657,45313 -5761,11004 -14169,19561 -25222,25662 -11004,6101 -23066,9136 -36096,9136 -20949,0 -37864,-6680 -50794,-20090 -12921,-13410 -19361,-32721 -19361,-57904zm25951 40c0,19132 4174,33450 12541,42916 8407,9516 18932,14279 31663,14279 12591,0 23066,-4763 31483,-14329 8358,-9556 12541,-24124 12541,-43675 0,-18453 -4234,-32442 -12641,-41908 -8407,-9516 -18882,-14269 -31383,-14269 -12731,0 -23255,4703 -31663,14169 -8368,9466 -12541,23745 -12541,42816z"/>
  <polygon id="23" fill="black" fill-rule="nonzero" points="6500202,992243 6500202,963406 6529029,963406 6529029,992243 "/>
  <polygon id="24" fill="black" fill-rule="nonzero" points="6580312,992243 6580312,963406 6609139,963406 6609139,992243 "/>
  <polygon id="25" fill="black" fill-rule="nonzero" points="6660423,992243 6660423,963406 6689250,963406 6689250,992243 "/>
 </g>
</svg>
