<?xml version="1.0" encoding="UTF-8"?>
<!DOCTYPE svg PUBLIC "-//W3C//DTD SVG 1.1//EN" "http://www.w3.org/Graphics/SVG/1.1/DTD/svg11.dtd">
<!-- Creator: CorelDRAW 2020 (64 Bit) -->
<svg xmlns="http://www.w3.org/2000/svg" xml:space="preserve" width="95.2093mm" height="26.8335mm" version="1.1" shape-rendering="geometricPrecision" text-rendering="geometricPrecision" image-rendering="optimizeQuality" fill-rule="evenodd" clip-rule="evenodd"
viewBox="0 0 1037711 292465"
 xmlns:xlink="http://www.w3.org/1999/xlink"
 xmlns:xodm="http://www.corel.com/coreldraw/odm/2003">
 <defs>
   <linearGradient id="id0" gradientUnits="userSpaceOnUse" x1="119380" y1="294175" x2="192540" y2="79364">
    <stop offset="0" stop-opacity="1" stop-color="#009933"/>
    <stop offset="1" stop-opacity="1" stop-color="white"/>
   </linearGradient>
   <linearGradient id="id1" gradientUnits="userSpaceOnUse" x1="118133" y1="45040" x2="-21162" y2="182602">
    <stop offset="0" stop-opacity="1" stop-color="red"/>
    <stop offset="1" stop-opacity="1" stop-color="white"/>
   </linearGradient>
   <linearGradient id="id2" gradientUnits="userSpaceOnUse" x1="186273" y1="160478" x2="172643" y2="-25800">
    <stop offset="0" stop-opacity="1" stop-color="#FFCC00"/>
    <stop offset="1" stop-opacity="1" stop-color="white"/>
   </linearGradient>
 </defs>
 <g id="Camada_x0020_1">
  <metadata id="CorelCorpID_0Corel-Layer"/>
  <path fill="url(#id0)" d="M77163 167277c-4437,11024 -6183,72587 -5101,83488 3168,31921 38955,55000 66505,33059 13279,-10576 139405,-134714 147355,-145491 -30959,17623 -68101,35127 -98999,44371 -32171,9624 -68234,15895 -109760,-15427z"/>
  <path fill="url(#id1)" d="M62973 247436c2456,-10771 594,-38636 862,-51262 688,-32321 1271,-73423 18552,-103434 5742,-9973 12218,-17609 20769,-24545 7378,-5985 18369,-11929 23880,-17263 -26990,-20833 -66375,-55197 -94572,-50494 -14252,2377 -29455,13703 -32309,32077 -2602,16751 28369,105122 35419,129127 4167,14185 8656,27474 12930,41997 3332,11322 9324,34290 14469,43799z"/>
  <path fill="url(#id2)" d="M75068 4475c44110,32039 125446,69520 127990,137578 299,7985 -1585,16482 223,23930 39665,-16565 109252,-31464 93292,-82258 -6154,-19582 -20916,-24080 -38720,-28871l-158971 -44809c-3829,-1092 -7430,-2164 -11046,-3227l-8361 -2085c-4167,-571 -2039,-341 -4408,-258z"/>
  <path fill="#666666" fill-rule="nonzero" d="M346861 282733l-3137 0c-357,0 -639,-90 -858,-266 -213,-182 -379,-402 -501,-668l-2492 -7032 -12060 0 -2469 7009c-92,251 -258,471 -501,668 -243,191 -540,289 -874,289l-3143 0 10974 -29241 4116 0 10945 29241zm-18022 -10861l10018 0 -4140 -11764c-153,-357 -296,-776 -449,-1253 -151,-472 -288,-980 -425,-1535 -144,562 -296,1087 -440,1558 -151,477 -289,896 -425,1246l-4138 11748zm46215 -13769c-220,410 -523,622 -911,622 -220,0 -486,-113 -790,-350 -304,-227 -676,-477 -1116,-751 -433,-275 -965,-532 -1580,-760 -614,-228 -1352,-342 -2209,-342 -821,0 -1535,114 -2149,342 -615,228 -1125,547 -1535,957 -410,410 -714,881 -926,1428 -205,540 -312,1124 -312,1747 0,813 191,1489 570,2020 379,540 874,995 1488,1367 616,380 1322,714 2105,995 790,281 1587,570 2408,866 812,295 1617,638 2400,1010 789,379 1489,858 2104,1428 616,569 1108,1268 1489,2104 379,827 570,1845 570,3045 0,1292 -206,2499 -623,3615 -417,1125 -1018,2097 -1815,2924 -790,836 -1770,1488 -2924,1960 -1154,477 -2476,714 -3964,714 -1793,0 -3441,-342 -4945,-1033 -1511,-691 -2787,-1625 -3843,-2795l1177 -1914c107,-159 235,-289 395,-388 153,-98 335,-144 547,-144 281,0 593,151 943,456 349,304 781,639 1298,1003 524,364 1147,691 1883,1003 737,304 1610,456 2635,456 858,0 1626,-129 2294,-380 668,-251 1229,-607 1701,-1070 462,-457 820,-1010 1070,-1656 242,-646 365,-1360 365,-2149 0,-874 -191,-1596 -570,-2158 -380,-561 -873,-1032 -1489,-1413 -615,-379 -1313,-699 -2104,-957 -783,-257 -1588,-531 -2400,-812 -821,-281 -1617,-601 -2409,-965 -781,-365 -1480,-843 -2104,-1435 -614,-593 -1108,-1330 -1488,-2203 -379,-881 -570,-1966 -570,-3273 0,-1026 198,-2021 585,-2993 379,-972 942,-1830 1678,-2582 729,-752 1640,-1353 2712,-1801 1078,-454 2308,-683 3706,-683 1556,0 2985,266 4283,783 1299,517 2423,1276 3372,2271l-1003 1891zm31238 0c-221,410 -523,622 -912,622 -219,0 -485,-113 -789,-350 -304,-227 -676,-477 -1116,-751 -433,-275 -965,-532 -1580,-760 -615,-228 -1352,-342 -2209,-342 -821,0 -1535,114 -2150,342 -614,228 -1124,547 -1534,957 -410,410 -714,881 -926,1428 -205,540 -312,1124 -312,1747 0,813 191,1489 570,2020 379,540 873,995 1488,1367 616,380 1322,714 2104,995 791,281 1588,570 2409,866 812,295 1617,638 2400,1010 789,379 1489,858 2104,1428 616,569 1108,1268 1489,2104 379,827 570,1845 570,3045 0,1292 -206,2499 -623,3615 -417,1125 -1018,2097 -1815,2924 -791,836 -1771,1488 -2924,1960 -1154,477 -2476,714 -3965,714 -1792,0 -3441,-342 -4944,-1033 -1512,-691 -2787,-1625 -3843,-2795l1177 -1914c106,-159 235,-289 395,-388 153,-98 335,-144 547,-144 281,0 593,151 943,456 349,304 781,639 1297,1003 525,364 1148,691 1884,1003 737,304 1610,456 2635,456 858,0 1625,-129 2293,-380 668,-251 1231,-607 1701,-1070 463,-457 821,-1010 1071,-1656 242,-646 365,-1360 365,-2149 0,-874 -191,-1596 -570,-2158 -380,-561 -874,-1032 -1489,-1413 -615,-379 -1313,-699 -2105,-957 -781,-257 -1587,-531 -2400,-812 -820,-281 -1616,-601 -2408,-965 -781,-365 -1480,-843 -2104,-1435 -615,-593 -1108,-1330 -1488,-2203 -379,-881 -570,-1966 -570,-3273 0,-1026 198,-2021 585,-2993 379,-972 942,-1830 1678,-2582 729,-752 1639,-1353 2712,-1801 1078,-454 2307,-683 3706,-683 1556,0 2984,266 4283,783 1299,517 2423,1276 3372,2271l-1003 1891zm33820 -4610l0 3296 -13018 0 0 9592 10482 0 0 3183 -10482 0 0 9873 13040 0 -22 3297 -17089 0 0 -29241 17089 0zm29970 4610c-220,410 -523,622 -911,622 -220,0 -486,-113 -790,-350 -303,-227 -676,-477 -1116,-751 -433,-275 -965,-532 -1579,-760 -615,-228 -1352,-342 -2210,-342 -820,0 -1534,114 -2149,342 -615,228 -1125,547 -1535,957 -410,410 -714,881 -925,1428 -206,540 -312,1124 -312,1747 0,813 190,1489 569,2020 379,540 874,995 1489,1367 615,380 1322,714 2104,995 790,281 1587,570 2408,866 812,295 1619,638 2400,1010 789,379 1489,858 2104,1428 616,569 1108,1268 1490,2104 379,827 569,1845 569,3045 0,1292 -205,2499 -623,3615 -417,1125 -1018,2097 -1815,2924 -790,836 -1770,1488 -2924,1960 -1154,477 -2476,714 -3964,714 -1792,0 -3441,-342 -4945,-1033 -1511,-691 -2787,-1625 -3843,-2795l1177 -1914c107,-159 235,-289 396,-388 151,-98 335,-144 546,-144 281,0 593,151 943,456 349,304 781,639 1298,1003 524,364 1147,691 1883,1003 737,304 1610,456 2635,456 859,0 1626,-129 2294,-380 668,-251 1229,-607 1701,-1070 462,-457 820,-1010 1070,-1656 243,-646 365,-1360 365,-2149 0,-874 -191,-1596 -570,-2158 -380,-561 -873,-1032 -1489,-1413 -615,-379 -1313,-699 -2104,-957 -783,-257 -1588,-531 -2400,-812 -821,-281 -1617,-601 -2408,-965 -783,-365 -1481,-843 -2105,-1435 -614,-593 -1108,-1330 -1488,-2203 -379,-881 -570,-1966 -570,-3273 0,-1026 198,-2021 585,-2993 379,-972 942,-1830 1678,-2582 729,-752 1640,-1353 2712,-1801 1078,-454 2308,-683 3706,-683 1558,0 2985,266 4284,783 1298,517 2423,1276 3371,2271l-1003 1891zm31238 0c-220,410 -523,622 -911,622 -220,0 -486,-113 -790,-350 -304,-227 -676,-477 -1116,-751 -433,-275 -965,-532 -1580,-760 -614,-228 -1352,-342 -2209,-342 -821,0 -1535,114 -2149,342 -615,228 -1125,547 -1535,957 -410,410 -714,881 -926,1428 -205,540 -312,1124 -312,1747 0,813 191,1489 570,2020 379,540 874,995 1488,1367 616,380 1322,714 2105,995 790,281 1587,570 2408,866 812,295 1617,638 2400,1010 789,379 1489,858 2104,1428 616,569 1108,1268 1489,2104 379,827 570,1845 570,3045 0,1292 -206,2499 -623,3615 -417,1125 -1018,2097 -1815,2924 -791,836 -1770,1488 -2924,1960 -1154,477 -2476,714 -3964,714 -1793,0 -3442,-342 -4945,-1033 -1511,-691 -2787,-1625 -3843,-2795l1177 -1914c107,-159 235,-289 395,-388 153,-98 335,-144 547,-144 281,0 593,151 943,456 349,304 781,639 1298,1003 524,364 1147,691 1883,1003 737,304 1610,456 2635,456 858,0 1626,-129 2294,-380 668,-251 1229,-607 1701,-1070 462,-457 820,-1010 1070,-1656 242,-646 365,-1360 365,-2149 0,-874 -191,-1596 -570,-2158 -380,-561 -873,-1032 -1489,-1413 -615,-379 -1313,-699 -2104,-957 -783,-257 -1588,-531 -2401,-812 -820,-281 -1616,-601 -2408,-965 -781,-365 -1480,-843 -2104,-1435 -615,-593 -1108,-1330 -1488,-2203 -379,-881 -570,-1966 -570,-3273 0,-1026 198,-2021 585,-2993 379,-972 942,-1830 1678,-2582 729,-752 1640,-1353 2712,-1801 1078,-454 2308,-683 3706,-683 1556,0 2984,266 4283,783 1299,517 2423,1276 3372,2271l-1003 1891zm42077 10010c0,2195 -327,4207 -972,6031 -646,1822 -1558,3395 -2735,4717 -1176,1321 -2597,2347 -4254,3083 -1647,736 -3486,1101 -5505,1101 -1998,0 -3835,-365 -5491,-1101 -1664,-737 -3091,-1762 -4276,-3083 -1186,-1322 -2105,-2895 -2756,-4717 -654,-1823 -980,-3835 -980,-6031 0,-2180 326,-4184 980,-6015 652,-1838 1571,-3418 2756,-4740 1185,-1328 2611,-2361 4276,-3099 1656,-728 3493,-1101 5491,-1101 2020,0 3858,373 5505,1101 1657,738 3078,1771 4254,3099 1177,1322 2088,2902 2735,4740 645,1831 972,3835 972,6015zm-4140 0c0,-1777 -220,-3380 -660,-4792 -434,-1420 -1056,-2620 -1869,-3608 -804,-987 -1784,-1740 -2931,-2270 -1155,-524 -2439,-791 -3866,-791 -1420,0 -2712,267 -3858,791 -1147,531 -2134,1283 -2947,2270 -820,987 -1443,2187 -1883,3608 -434,1413 -653,3016 -653,4792 0,1784 219,3380 653,4800 440,1413 1064,2613 1883,3600 813,987 1801,1740 2947,2263 1147,517 2438,776 3858,776 1427,0 2711,-259 3866,-776 1147,-523 2126,-1275 2931,-2263 813,-987 1435,-2187 1869,-3600 440,-1420 660,-3016 660,-4800zm23361 2468l0 12153 -4048 0 0 -29241 8006 0c1784,0 3319,191 4618,570 1298,379 2368,918 3204,1625 843,706 1458,1556 1861,2559 396,1003 601,2126 601,3372 0,1018 -151,1975 -456,2871 -304,888 -744,1686 -1314,2400 -570,715 -1269,1321 -2104,1839 -828,508 -1769,896 -2826,1168 252,160 487,342 715,540 220,205 433,440 645,729l7854 11567 -3609 0c-691,0 -1238,-274 -1625,-820l-6919 -10413c-220,-327 -463,-562 -722,-706 -258,-136 -645,-214 -1169,-214l-2712 0zm0 -2954l3806 0c1063,0 2004,-137 2810,-411 812,-280 1488,-668 2043,-1168 546,-509 958,-1108 1231,-1815 274,-706 411,-1482 411,-2325 0,-3486 -2112,-5234 -6342,-5234l-3958 0 0 10953zm35485 15106l-4048 0 0 -29241 4048 0 0 29241zm40230 0l-3137 0c-359,0 -639,-90 -859,-266 -213,-182 -379,-402 -500,-668l-2493 -7032 -12060 0 -2468 7009c-93,251 -259,471 -502,668 -243,191 -540,289 -874,289l-3143 0 10976 -29241 4116 0 10945 29241zm-18023 -10861l10018 0 -4140 -11764c-151,-357 -296,-776 -448,-1253 -153,-472 -289,-980 -425,-1535 -145,562 -296,1087 -441,1558 -151,477 -289,896 -425,1246l-4138 11748zm56400 -1292l0 12153 -4047 0 0 -29241 8004 0c1784,0 3319,191 4618,570 1299,379 2369,918 3204,1625 844,706 1458,1556 1862,2559 395,1003 599,2126 599,3372 0,1018 -151,1975 -456,2871 -304,888 -744,1686 -1314,2400 -570,715 -1269,1321 -2104,1839 -827,508 -1769,896 -2825,1168 251,160 486,342 714,540 220,205 433,440 646,729l7853 11567 -3609 0c-691,0 -1238,-274 -1625,-820l-6919 -10413c-220,-327 -462,-562 -722,-706 -258,-136 -645,-214 -1169,-214l-2712 0zm0 -2954l3806 0c1063,0 2005,-137 2810,-411 812,-280 1488,-668 2043,-1168 547,-509 958,-1108 1232,-1815 272,-706 410,-1482 410,-2325 0,-3486 -2111,-5234 -6342,-5234l-3958 0 0 10953zm48040 -14134l0 3296 -13019 0 0 9592 10482 0 0 3183 -10482 0 0 9873 13041 0 -22 3297 -17090 0 0 -29241 17090 0zm38605 26415c-1428,1056 -2948,1838 -4549,2354 -1611,524 -3357,783 -5241,783 -2270,0 -4320,-365 -6152,-1093 -1838,-722 -3395,-1747 -4687,-3054 -1290,-1313 -2286,-2886 -2984,-4716 -699,-1839 -1040,-3858 -1040,-6069 0,-2225 334,-4253 1010,-6084 676,-1830 1639,-3403 2893,-4716 1253,-1314 2764,-2332 4549,-3062 1778,-728 3776,-1093 5985,-1093 1124,0 2172,92 3129,258 957,174 1839,417 2658,737 812,319 1565,706 2256,1169 691,457 1330,972 1928,1535l-1139 1822c-174,296 -417,480 -714,555 -295,76 -615,8 -957,-198 -341,-196 -714,-424 -1124,-699 -402,-280 -888,-538 -1451,-781 -569,-243 -1238,-456 -2004,-631 -776,-181 -1686,-274 -2742,-274 -1542,0 -2940,274 -4193,807 -1252,531 -2316,1298 -3204,2293 -882,986 -1558,2195 -2036,3615 -471,1413 -706,2999 -706,4747 0,1822 243,3463 744,4906 494,1452 1207,2674 2134,3676 926,995 2043,1761 3349,2287 1307,532 2764,789 4383,789 1246,0 2362,-144 3334,-433 980,-289 1943,-691 2894,-1208l0 -6410 -4199 0c-275,0 -487,-76 -646,-228 -167,-144 -251,-327 -251,-555l0 -2286 8773 0 0 11256zm27296 -379c1171,0 2218,-206 3144,-608 926,-410 1709,-980 2347,-1717 638,-736 1125,-1610 1459,-2613 334,-1010 500,-2126 500,-3342l0 -17757 4056 0 0 17757c0,1694 -274,3258 -804,4693 -532,1443 -1292,2689 -2279,3745 -987,1047 -2194,1876 -3615,2475 -1428,601 -3031,905 -4808,905 -1784,0 -3380,-304 -4800,-905 -1413,-599 -2620,-1428 -3615,-2475 -986,-1056 -1755,-2302 -2286,-3745 -540,-1435 -805,-2999 -805,-4693l0 -17757 4048 0 0 17734c0,1215 168,2331 502,3349 334,1018 820,1892 1457,2628 639,737 1420,1307 2347,1717 928,402 1983,608 3152,608zm32043 -198l11279 0 0 3403 -15334 0 0 -29241 4056 0 0 25838zm48541 3403l-3137 0c-357,0 -639,-90 -859,-266 -211,-182 -379,-402 -500,-668l-2493 -7032 -12060 0 -2468 7009c-93,251 -259,471 -502,668 -242,191 -538,289 -873,289l-3144 0 10976 -29241 4116 0 10945 29241zm-18023 -10861l10018 0 -4140 -11764c-151,-357 -296,-776 -448,-1253 -151,-472 -289,-980 -425,-1535 -145,562 -296,1087 -441,1558 -151,477 -288,896 -425,1246l-4138 11748zm50157 -18379l0 3387 -8529 0 0 25853 -4072 0 0 -25853 -8544 0 0 -3387 21145 0zm39403 14620c0,2195 -327,4207 -972,6031 -646,1822 -1556,3395 -2735,4717 -1176,1321 -2596,2347 -4253,3083 -1648,736 -3487,1101 -5505,1101 -1998,0 -3837,-365 -5492,-1101 -1663,-737 -3091,-1762 -4276,-3083 -1186,-1322 -2104,-2895 -2756,-4717 -654,-1823 -980,-3835 -980,-6031 0,-2180 326,-4184 980,-6015 653,-1838 1571,-3418 2756,-4740 1185,-1328 2613,-2361 4276,-3099 1656,-728 3494,-1101 5492,-1101 2019,0 3857,373 5505,1101 1657,738 3077,1771 4253,3099 1178,1322 2088,2902 2735,4740 645,1831 972,3835 972,6015zm-4140 0c0,-1777 -220,-3380 -660,-4792 -433,-1420 -1056,-2620 -1868,-3608 -805,-987 -1785,-1740 -2932,-2270 -1154,-524 -2438,-791 -3865,-791 -1421,0 -2712,267 -3859,791 -1147,531 -2134,1283 -2946,2270 -821,987 -1444,2187 -1884,3608 -433,1413 -653,3016 -653,4792 0,1784 220,3380 653,4800 440,1413 1064,2613 1884,3600 812,987 1799,1740 2946,2263 1148,517 2438,776 3859,776 1427,0 2711,-259 3865,-776 1147,-523 2126,-1275 2932,-2263 812,-987 1435,-2187 1868,-3600 440,-1420 660,-3016 660,-4800zm-1799 -23430l-6965 6167c-228,190 -440,311 -639,356 -196,39 -448,62 -744,62l-2802 0 4892 -5873c137,-150 266,-272 379,-364 122,-98 251,-174 388,-227 144,-54 295,-85 471,-100 167,-15 372,-22 607,-22l4413 0zm25162 25898l0 12153 -4048 0 0 -29241 8004 0c1784,0 3319,191 4618,570 1299,379 2369,918 3204,1625 844,706 1458,1556 1862,2559 395,1003 599,2126 599,3372 0,1018 -151,1975 -456,2871 -304,888 -744,1686 -1314,2400 -569,715 -1269,1321 -2104,1839 -827,508 -1769,896 -2825,1168 251,160 486,342 714,540 220,205 433,440 646,729l7853 11567 -3609 0c-691,0 -1237,-274 -1625,-820l-6919 -10413c-220,-327 -462,-562 -722,-706 -258,-136 -645,-214 -1168,-214l-2712 0zm0 -2954l3805 0c1063,0 2005,-137 2810,-411 812,-280 1488,-668 2043,-1168 547,-509 958,-1108 1232,-1815 272,-706 410,-1482 410,-2325 0,-3486 -2111,-5234 -6342,-5234l-3956 0 0 10953zm35484 15106l-4048 0 0 -29241 4048 0 0 29241zm40230 0l-3137 0c-357,0 -639,-90 -859,-266 -211,-182 -379,-402 -500,-668l-2493 -7032 -12060 0 -2468 7009c-92,251 -259,471 -502,668 -242,191 -538,289 -873,289l-3143 0 10974 -29241 4116 0 10945 29241zm-18023 -10861l10018 0 -4140 -11764c-151,-357 -296,-776 -448,-1253 -151,-472 -289,-980 -425,-1535 -145,562 -296,1087 -441,1558 -151,477 -288,896 -425,1246l-4138 11748z"/>
  <path fill="#666666" fill-rule="nonzero" d="M320826 212706l0 -65520 12335 0 0 65520 -12335 0zm4507 -25993l0 -11904 33559 0 0 11904 -33559 0zm0 -27623l0 -11904 38527 0 0 11904 -38527 0zm46171 53616l0 -46771 13242 0 0 46771 -13242 0zm26315 -33744c-601,-599 -1338,-1062 -2199,-1354 -876,-307 -1892,-461 -3030,-461 -2492,0 -4414,815 -5783,2414 -1369,1615 -2061,3845 -2061,6691l-937 -12166c1292,-2753 2953,-4922 4998,-6491 2045,-1553 4306,-2338 6813,-2338 1923,0 3660,307 5245,923 1568,615 2968,1523 4168,2722l-7213 10059zm38805 33744l0 -29653c0,-2154 -708,-3830 -2138,-4998 -1430,-1169 -3476,-1754 -6152,-1754 -1738,0 -3476,277 -5184,831 -1707,554 -3229,1354 -4553,2414l-7659 -7536c1892,-2122 4367,-3783 7413,-4968 3046,-1185 6429,-1784 10167,-1784 6121,0 10874,1523 14257,4553 3383,3030 5076,7321 5076,12843l0 30053 -11227 0zm-13028 677c-4983,0 -8720,-1185 -11212,-3568 -2492,-2368 -3737,-5998 -3737,-10889 0,-4659 1384,-8135 4168,-10443 2768,-2292 6937,-3445 12505,-3445l11704 0 631 9413 -12289 0c-1876,0 -3260,369 -4198,1092 -923,723 -1399,1845 -1399,3383 0,1523 584,2662 1769,3399 1168,738 2937,1092 5306,1092 3276,0 5721,-369 7352,-1123 1615,-754 2431,-1923 2431,-3507l953 6799c-184,1768 -984,3245 -2399,4398 -1415,1154 -3138,2015 -5198,2569 -2061,554 -4184,831 -6384,831zm36406 -677l0 -46771 12350 0 0 46771 -12350 0zm27038 0l0 -28346c0,-2307 -646,-4090 -1938,-5336 -1292,-1246 -3153,-1877 -5583,-1877 -2323,0 -4092,646 -5322,1923 -1231,1276 -1845,3076 -1845,5383l-954 -10366c1354,-2814 2999,-4998 4937,-6536 1938,-1523 4460,-2292 7551,-2292 4922,0 8736,1661 11443,4983 2706,3322 4060,8013 4060,14073l0 28391 -12350 0zm44296 677c-6691,0 -11889,-1892 -15580,-5660 -3707,-3768 -5552,-9105 -5552,-16011l0 -4998c0,-6859 1845,-12135 5552,-15873 3692,-3721 8889,-5583 15580,-5583 3844,0 7320,646 10412,1938 3091,1292 5567,3138 7428,5537l0 0 -7966 7752 0 0c-1107,-1045 -2446,-1861 -3984,-2446 -1553,-584 -3168,-892 -4845,-892 -3122,0 -5552,846 -7259,2507 -1708,1661 -2569,4014 -2569,7059l0 4998c0,3123 861,5537 2569,7229 1707,1692 4137,2553 7259,2553 1676,0 3292,-323 4845,-954 1538,-630 2876,-1538 3984,-2706l0 0 7966 8197 0 0c-1830,2353 -4291,4153 -7397,5429 -3123,1276 -6598,1923 -10443,1923zm25500 -53846l0 -12351 12350 0 0 12351 -12350 0zm0 53169l0 -46771 12350 0 0 46771 -12350 0zm41726 677c-4198,0 -8197,-569 -12012,-1692 -3798,-1123 -7029,-2692 -9705,-4706l0 0 7613 -9505 0 0c2261,1445 4614,2553 7075,3337 2461,769 4814,1169 7029,1169 2892,0 5122,-324 6720,-969 1585,-646 2385,-1539 2385,-2692 0,-1369 -554,-2323 -1646,-2829 -1092,-508 -2522,-847 -4306,-1016 -1769,-169 -3646,-385 -5629,-662 -2015,-260 -3999,-584 -5967,-969 -1968,-368 -3768,-984 -5383,-1845 -1631,-846 -2922,-2137 -3876,-3876 -969,-1722 -1446,-4075 -1446,-7044 0,-4722 1677,-8366 4999,-10950 3337,-2584 8059,-3876 14149,-3876 3584,0 7105,523 10566,1585 3476,1045 6583,2537 9305,4460l0 0 -7336 8967 0 0c-2045,-1154 -4183,-2031 -6398,-2662 -2230,-630 -4367,-954 -6398,-954 -2492,0 -4429,277 -5814,831 -1384,570 -2076,1369 -2076,2415 0,907 476,1584 1445,2031 954,446 2215,768 3784,969 1553,199 3245,399 5044,615 2076,231 4153,523 6259,876 2108,339 4031,969 5798,1862 1754,907 3168,2276 4245,4106 1092,1831 1631,4353 1631,7567 0,4892 -1754,8690 -5245,11397 -3506,2706 -8444,4060 -14811,4060zm49740 0c-6691,0 -11889,-1892 -15580,-5660 -3707,-3768 -5552,-9105 -5552,-16011l0 -4998c0,-6859 1845,-12135 5552,-15873 3692,-3721 8889,-5583 15580,-5583 3844,0 7320,646 10412,1938 3091,1292 5567,3138 7428,5537l0 0 -7966 7752 0 0c-1107,-1045 -2446,-1861 -3984,-2446 -1553,-584 -3168,-892 -4845,-892 -3122,0 -5552,846 -7259,2507 -1708,1661 -2569,4014 -2569,7059l0 4998c0,3123 861,5537 2569,7229 1707,1692 4137,2553 7259,2553 1676,0 3292,-323 4845,-954 1538,-630 2876,-1538 3984,-2706l0 0 7966 8197 0 0c-1830,2353 -4291,4153 -7397,5429 -3123,1276 -6598,1923 -10443,1923zm45017 0c-6398,0 -11366,-1784 -14888,-5337 -3537,-3567 -5306,-8567 -5306,-15026l0 -7613c0,-6399 1769,-11366 5306,-14873 3523,-3522 8491,-5275 14888,-5275 6398,0 11366,1754 14887,5275 3538,3507 5292,8474 5292,14873l0 7752c0,6413 -1754,11396 -5292,14934 -3522,3522 -8489,5290 -14887,5290zm0 -11889c2461,0 4383,-738 5767,-2199 1384,-1445 2076,-3506 2076,-6136l0 -7752c0,-2615 -692,-4645 -2076,-6091 -1384,-1446 -3306,-2169 -5767,-2169 -2492,0 -4429,723 -5798,2169 -1369,1445 -2046,3476 -2046,6091l0 7752c0,2630 677,4691 2046,6136 1369,1462 3307,2199 5798,2199zm57137 11212l0 -65520 12335 0 0 65520 -12335 0zm5491 0l0 -11889 38388 0 0 11889 -38388 0zm73348 0l0 -46771 12304 0 0 46771 -12304 0zm-14504 -46771l0 28437c0,2246 630,3999 1907,5245 1276,1246 3076,1877 5398,1877 2306,0 4090,-646 5336,-1923 1246,-1276 1862,-3106 1862,-5476l630 10228c-784,2307 -2153,4399 -4122,6261 -1968,1861 -4506,2799 -7628,2799 -5029,0 -8905,-1631 -11627,-4860 -2738,-3246 -4106,-7814 -4106,-13704l0 -28884 12350 0zm58752 47448c-6691,0 -11889,-1892 -15580,-5660 -3707,-3768 -5552,-9105 -5552,-16011l0 -4998c0,-6859 1845,-12135 5552,-15873 3692,-3721 8889,-5583 15580,-5583 3844,0 7320,646 10412,1938 3091,1292 5567,3138 7428,5537l0 0 -7966 7752 0 0c-1107,-1045 -2446,-1861 -3984,-2446 -1553,-584 -3168,-892 -4845,-892 -3122,0 -5552,846 -7259,2507 -1708,1661 -2569,4014 -2569,7059l0 4998c0,3123 861,5537 2569,7229 1707,1692 4137,2553 7259,2553 1676,0 3292,-323 4845,-954 1538,-630 2876,-1538 3984,-2706l0 0 7966 8197 0 0c-1830,2353 -4291,4153 -7397,5429 -3123,1276 -6598,1923 -10443,1923zm46232 0c-6799,0 -12059,-1830 -15796,-5476 -3737,-3645 -5613,-8812 -5613,-15473l0 -5275c0,-6967 1799,-12365 5383,-16180 3599,-3814 8658,-5721 15211,-5721 6182,0 10981,2277 14349,6828 3384,4553 5076,10952 5076,19210l0 3076 -31990 0 0 -8336 20717 0 -123 -1092c-339,-2676 -1185,-4752 -2523,-6229 -1353,-1491 -3184,-2230 -5505,-2230 -2969,0 -5275,877 -6921,2645 -1631,1784 -2446,4291 -2446,7537l0 5937c0,3184 892,5660 2676,7397 1784,1738 4291,2615 7506,2615 1645,0 3290,-292 4906,-876 1631,-584 3091,-1431 4414,-2507l0 0 8074 7166 0 0c-2429,2215 -5167,3938 -8197,5153 -3045,1214 -6106,1830 -9197,1830zm29423 -677l0 -46771 12350 0 0 46771 -12350 0zm27038 0l0 -28346c0,-2307 -646,-4090 -1938,-5336 -1292,-1246 -3153,-1877 -5583,-1877 -2323,0 -4092,646 -5322,1923 -1231,1276 -1845,3076 -1845,5383l-954 -10366c1354,-2814 2999,-4998 4937,-6536 1938,-1523 4460,-2292 7551,-2292 4922,0 8736,1661 11443,4983 2706,3322 4060,8013 4060,14073l0 28391 -12350 0zm50248 0l0 -29653c0,-2154 -708,-3830 -2138,-4998 -1430,-1169 -3476,-1754 -6152,-1754 -1738,0 -3476,277 -5184,831 -1707,554 -3229,1354 -4553,2414l-7659 -7536c1892,-2122 4367,-3783 7413,-4968 3046,-1185 6429,-1784 10167,-1784 6121,0 10874,1523 14257,4553 3383,3030 5076,7321 5076,12843l0 30053 -11227 0zm-13028 677c-4983,0 -8720,-1185 -11212,-3568 -2492,-2368 -3737,-5998 -3737,-10889 0,-4659 1384,-8135 4168,-10443 2768,-2292 6937,-3445 12505,-3445l11704 0 631 9413 -12289 0c-1876,0 -3260,369 -4198,1092 -923,723 -1399,1845 -1399,3383 0,1523 584,2662 1769,3399 1168,738 2937,1092 5306,1092 3276,0 5721,-369 7352,-1123 1615,-754 2431,-1923 2431,-3507l953 6799c-184,1768 -984,3245 -2399,4398 -1415,1154 -3138,2015 -5198,2569 -2061,554 -4184,831 -6384,831z"/>
 </g>
</svg>
