<?xml version="1.0" encoding="UTF-8"?>
<!DOCTYPE svg PUBLIC "-//W3C//DTD SVG 1.1//EN" "http://www.w3.org/Graphics/SVG/1.1/DTD/svg11.dtd">
<!-- Creator: CorelDRAW 2020 (64 Bit) -->
<svg xmlns="http://www.w3.org/2000/svg" xml:space="preserve" width="144.604mm" height="40.7548mm" version="1.1" shape-rendering="geometricPrecision" text-rendering="geometricPrecision" image-rendering="optimizeQuality" fill-rule="evenodd" clip-rule="evenodd"
viewBox="0 0 4053435 1142408"
 xmlns:xlink="http://www.w3.org/1999/xlink"
 xmlns:xodm="http://www.corel.com/coreldraw/odm/2003">
 <g id="Camada_x0020_1">
  <metadata id="CorelCorpID_0Corel-Layer"/>
  <path fill="#009933" d="M301409 653405c-17329,43062 -24149,283536 -19922,326118 12376,124686 152165,214840 259777,129132 51866,-41312 544532,-526208 575588,-568308 -120930,68839 -266011,137210 -386705,173317 -125664,37595 -266529,62092 -428738,-60259z"/>
  <path fill="red" d="M245977 966517c9595,-42072 2321,-150915 3369,-200238 2685,-126250 4964,-286799 72466,-404025 22428,-38955 47726,-68783 81122,-95875 28819,-23381 71752,-46599 93282,-67438 -105428,-81372 -259272,-215605 -369410,-197233 -55670,9287 -115057,53526 -126202,125294 -10164,65433 110813,410621 138354,504389 16275,55409 33811,107315 50504,164047 13015,44222 36418,133939 56514,171080z"/>
  <path fill="#FFCC00" d="M293221 17483c172305,125148 490011,271550 499948,537395 1166,31190 -6189,64382 875,93476 154934,-64702 426753,-122903 364409,-321308 -24034,-76489 -81700,-94059 -151243,-112778l-620962 -175027c-14957,-4266 -29021,-8449 -43148,-12606l-32656 -8146c-16278,-2231 -7969,-1334 -17222,-1006z"/>
  <path fill="#666666" fill-rule="nonzero" d="M1354887 1104394l-12252 0c-1396,0 -2495,-356 -3353,-1040 -830,-712 -1483,-1570 -1957,-2610l-9735 -27471 -47109 0 -9640 27381c-359,978 -1012,1839 -1959,2610 -947,743 -2105,1130 -3414,1130l-12278 0 42868 -114219 16076 0 42753 114219zm-70400 -42425l39132 0 -16168 -45952c-594,-1399 -1158,-3030 -1752,-4897 -594,-1839 -1127,-3826 -1662,-5990 -563,2195 -1158,4241 -1721,6080 -594,1867 -1127,3498 -1659,4866l-16168 45893zm180527 -53786c-863,1603 -2046,2436 -3563,2436 -858,0 -1895,-446 -3083,-1368 -1189,-889 -2641,-1867 -4362,-2935 -1690,-1071 -3767,-2080 -6170,-2969 -2402,-889 -5281,-1337 -8634,-1337 -3201,0 -5990,448 -8395,1337 -2402,889 -4392,2136 -5993,3739 -1601,1601 -2789,3442 -3619,5578 -802,2105 -1217,4390 -1217,6823 0,3173 743,5814 2226,7891 1483,2105 3411,3885 5814,5337 2405,1486 5163,2789 8216,3888 3089,1096 6203,2226 9404,3383 3176,1155 6324,2492 9376,3944 3083,1483 5816,3353 8219,5578 2402,2226 4331,4956 5816,8219 1480,3232 2226,7210 2226,11894 0,5046 -804,9763 -2436,14125 -1631,4390 -3975,8188 -7089,11420 -3089,3266 -6915,5814 -11423,7655 -4510,1867 -9674,2789 -15484,2789 -7002,0 -13441,-1337 -19314,-4036 -5903,-2699 -10887,-6346 -15014,-10918l4600 -7473c415,-622 917,-1127 1542,-1516 594,-384 1306,-563 2136,-563 1096,0 2315,594 3681,1780 1362,1189 3055,2495 5071,3919 2049,1421 4479,2699 7358,3916 2879,1186 6287,1780 10293,1780 3353,0 6352,-505 8962,-1486 2610,-978 4805,-2371 6646,-4182 1805,-1780 3201,-3947 4179,-6467 950,-2523 1427,-5312 1427,-8395 0,-3414 -743,-6231 -2226,-8426 -1486,-2198 -3411,-4034 -5816,-5519 -2399,-1483 -5130,-2730 -8216,-3737 -3055,-1009 -6203,-2077 -9376,-3173 -3204,-1099 -6315,-2346 -9404,-3767 -3055,-1427 -5783,-3294 -8219,-5609 -2399,-2315 -4331,-5194 -5811,-8600 -1483,-3445 -2226,-7686 -2226,-12788 0,-4008 774,-7894 2285,-11692 1483,-3795 3678,-7148 6557,-10083 2848,-2938 6405,-5284 10593,-7036 4210,-1774 9015,-2669 14473,-2669 6083,0 11661,1037 16735,3058 5074,2015 9466,4984 13172,8872l-3916 7383zm122020 0c-863,1603 -2046,2436 -3563,2436 -858,0 -1895,-446 -3083,-1368 -1186,-889 -2641,-1867 -4362,-2935 -1690,-1071 -3765,-2080 -6170,-2969 -2402,-889 -5281,-1337 -8634,-1337 -3201,0 -5990,448 -8395,1337 -2402,889 -4392,2136 -5993,3739 -1601,1601 -2789,3442 -3616,5578 -804,2105 -1219,4390 -1219,6823 0,3173 743,5814 2226,7891 1483,2105 3414,3885 5814,5337 2405,1486 5163,2789 8216,3888 3089,1096 6203,2226 9407,3383 3173,1155 6321,2492 9374,3944 3083,1483 5816,3353 8219,5578 2402,2226 4331,4956 5816,8219 1483,3232 2226,7210 2226,11894 0,5046 -804,9763 -2436,14125 -1631,4390 -3975,8188 -7089,11420 -3089,3266 -6915,5814 -11420,7655 -4510,1867 -9676,2789 -15487,2789 -7002,0 -13441,-1337 -19314,-4036 -5903,-2699 -10887,-6346 -15014,-10918l4600 -7473c415,-622 917,-1127 1542,-1516 594,-384 1306,-563 2136,-563 1096,0 2315,594 3681,1780 1362,1189 3055,2495 5071,3919 2049,1421 4479,2699 7358,3916 2879,1186 6287,1780 10293,1780 3353,0 6352,-505 8962,-1486 2610,-978 4805,-2371 6646,-4182 1805,-1780 3201,-3947 4179,-6467 950,-2523 1427,-5312 1427,-8395 0,-3414 -743,-6231 -2226,-8426 -1486,-2198 -3411,-4034 -5816,-5519 -2399,-1483 -5130,-2730 -8216,-3737 -3055,-1009 -6203,-2077 -9376,-3173 -3204,-1099 -6315,-2346 -9404,-3767 -3053,-1427 -5783,-3294 -8219,-5609 -2399,-2315 -4331,-5194 -5811,-8600 -1483,-3445 -2226,-7686 -2226,-12788 0,-4008 774,-7894 2285,-11692 1483,-3795 3678,-7148 6557,-10083 2848,-2938 6405,-5284 10593,-7036 4210,-1774 9015,-2669 14473,-2669 6083,0 11661,1037 16735,3058 5074,2015 9466,4984 13172,8872l-3916 7383zm132108 -18007l0 12875 -50851 0 0 37469 40942 0 0 12432 -40942 0 0 38565 50936 0 -84 12878 -66754 0 0 -114219 66754 0zm117067 18007c-863,1603 -2046,2436 -3563,2436 -858,0 -1898,-446 -3083,-1368 -1189,-889 -2641,-1867 -4362,-2935 -1690,-1071 -3767,-2080 -6172,-2969 -2399,-889 -5278,-1337 -8631,-1337 -3204,0 -5993,448 -8398,1337 -2399,889 -4390,2136 -5990,3739 -1603,1601 -2789,3442 -3619,5578 -802,2105 -1217,4390 -1217,6823 0,3173 743,5814 2226,7891 1480,2105 3411,3885 5811,5337 2405,1486 5166,2789 8219,3888 3089,1096 6201,2226 9404,3383 3173,1155 6321,2492 9376,3944 3083,1483 5816,3353 8216,5578 2405,2226 4331,4956 5816,8219 1483,3232 2226,7210 2226,11894 0,5046 -802,9763 -2433,14125 -1631,4390 -3978,8188 -7092,11420 -3086,3266 -6913,5814 -11420,7655 -4510,1867 -9674,2789 -15487,2789 -6999,0 -13441,-1337 -19314,-4036 -5903,-2699 -10887,-6346 -15014,-10918l4600 -7473c415,-622 919,-1127 1545,-1516 591,-384 1306,-563 2133,-563 1099,0 2315,594 3683,1780 1362,1189 3053,2495 5068,3919 2052,1421 4482,2699 7361,3916 2879,1186 6287,1780 10293,1780 3353,0 6349,-505 8959,-1486 2610,-978 4807,-2371 6646,-4182 1808,-1780 3204,-3947 4182,-6467 947,-2523 1427,-5312 1427,-8395 0,-3414 -743,-6231 -2226,-8426 -1486,-2198 -3411,-4034 -5816,-5519 -2402,-1483 -5130,-2730 -8219,-3737 -3053,-1009 -6201,-2077 -9374,-3173 -3204,-1099 -6318,-2346 -9404,-3767 -3055,-1427 -5783,-3294 -8219,-5609 -2399,-2315 -4331,-5194 -5814,-8600 -1480,-3445 -2226,-7686 -2226,-12788 0,-4008 774,-7894 2287,-11692 1480,-3795 3678,-7148 6554,-10083 2851,-2938 6408,-5284 10593,-7036 4213,-1774 9018,-2669 14475,-2669 6083,0 11661,1037 16735,3058 5074,2015 9463,4984 13172,8872l-3916 7383zm122020 0c-863,1603 -2046,2436 -3563,2436 -858,0 -1898,-446 -3083,-1368 -1189,-889 -2641,-1867 -4362,-2935 -1690,-1071 -3767,-2080 -6172,-2969 -2399,-889 -5278,-1337 -8631,-1337 -3204,0 -5993,448 -8398,1337 -2399,889 -4390,2136 -5990,3739 -1603,1601 -2789,3442 -3619,5578 -802,2105 -1217,4390 -1217,6823 0,3173 743,5814 2226,7891 1480,2105 3411,3885 5814,5337 2402,1486 5163,2789 8216,3888 3089,1096 6201,2226 9404,3383 3173,1155 6321,2492 9376,3944 3083,1483 5816,3353 8216,5578 2405,2226 4331,4956 5819,8219 1480,3232 2223,7210 2223,11894 0,5046 -802,9763 -2433,14125 -1631,4390 -3978,8188 -7089,11420 -3089,3266 -6915,5814 -11423,7655 -4510,1867 -9674,2789 -15487,2789 -6999,0 -13441,-1337 -19314,-4036 -5901,-2699 -10887,-6346 -15011,-10918l4600 -7473c412,-622 917,-1127 1542,-1516 591,-384 1306,-563 2133,-563 1099,0 2315,594 3683,1780 1362,1189 3053,2495 5068,3919 2052,1421 4482,2699 7361,3916 2879,1186 6287,1780 10293,1780 3353,0 6352,-505 8962,-1486 2607,-978 4805,-2371 6643,-4182 1808,-1780 3204,-3947 4182,-6467 947,-2523 1427,-5312 1427,-8395 0,-3414 -743,-6231 -2226,-8426 -1486,-2198 -3411,-4034 -5816,-5519 -2399,-1483 -5130,-2730 -8219,-3737 -3053,-1009 -6201,-2077 -9374,-3173 -3204,-1099 -6318,-2346 -9404,-3767 -3055,-1427 -5783,-3294 -8219,-5609 -2399,-2315 -4331,-5194 -5814,-8600 -1480,-3445 -2223,-7686 -2223,-12788 0,-4008 771,-7894 2285,-11692 1480,-3795 3678,-7148 6557,-10083 2848,-2938 6405,-5284 10590,-7036 4213,-1774 9018,-2669 14475,-2669 6083,0 11661,1037 16735,3058 5074,2015 9463,4984 13172,8872l-3916 7383zm164353 39101c0,8575 -1275,16438 -3795,23557 -2526,7120 -6083,13262 -10683,18425 -4594,5158 -10145,9166 -16614,12045 -6436,2873 -13615,4300 -21506,4300 -7801,0 -14983,-1427 -21450,-4300 -6500,-2879 -12073,-6887 -16704,-12045 -4628,-5163 -8216,-11305 -10767,-18425 -2554,-7120 -3826,-14983 -3826,-23557 0,-8516 1273,-16345 3826,-23493 2551,-7182 6139,-13351 10767,-18515 4631,-5191 10203,-9228 16704,-12107 6467,-2842 13648,-4300 21450,-4300 7891,0 15070,1458 21506,4300 6470,2879 12020,6915 16614,12107 4600,5163 8157,11333 10683,18515 2520,7148 3795,14977 3795,23493zm-16168 0c0,-6941 -858,-13200 -2582,-18719 -1690,-5547 -4123,-10234 -7297,-14089 -3145,-3857 -6971,-6798 -11451,-8872 -4510,-2046 -9525,-3089 -15100,-3089 -5547,0 -10590,1043 -15072,3089 -4479,2074 -8336,5015 -11510,8872 -3204,3854 -5637,8541 -7358,14089 -1693,5519 -2551,11779 -2551,18719 0,6971 858,13203 2551,18750 1721,5519 4154,10206 7358,14060 3173,3857 7030,6798 11510,8841 4482,2018 9525,3030 15072,3030 5575,0 10590,-1012 15100,-3030 4479,-2043 8306,-4984 11451,-8841 3173,-3854 5606,-8541 7297,-14060 1724,-5547 2582,-11779 2582,-18750zm91256 9640l0 47471 -15812 0 0 -114219 31269 0c6971,0 12962,743 18035,2226 5076,1483 9256,3588 12519,6346 3294,2761 5699,6083 7271,9999 1542,3919 2343,8308 2343,13172 0,3978 -594,7714 -1780,11218 -1189,3467 -2910,6585 -5135,9374 -2223,2789 -4953,5161 -8216,7179 -3235,1987 -6913,3498 -11036,4566 981,625 1901,1337 2789,2105 861,804 1690,1721 2523,2851l30675 45184 -14094 0c-2699,0 -4835,-1068 -6346,-3204l-27028 -40673c-858,-1278 -1808,-2195 -2820,-2758 -1006,-535 -2520,-835 -4563,-835l-10593 0zm0 -11540l14862 0c4151,0 7835,-533 10977,-1601 3173,-1099 5814,-2610 7978,-4566 2136,-1990 3742,-4331 4810,-7089 1068,-2758 1601,-5788 1601,-9079 0,-13618 -8247,-20443 -24771,-20443l-15456 0 0 42778zm138603 59011l-15810 0 0 -114219 15810 0 0 114219zm157146 0l-12252 0c-1399,0 -2495,-356 -3353,-1040 -830,-712 -1483,-1570 -1957,-2610l-9735 -27471 -47109 0 -9640 27381c-359,978 -1012,1839 -1959,2610 -947,743 -2105,1130 -3414,1130l-12278 0 42868 -114219 16076 0 42753 114219zm-70400 -42425l39132 0 -16168 -45952c-594,-1399 -1158,-3030 -1752,-4897 -594,-1839 -1127,-3826 -1662,-5990 -563,2195 -1158,4241 -1721,6080 -594,1867 -1127,3498 -1662,4866l-16166 45893zm220312 -5046l0 47471 -15812 0 0 -114219 31269 0c6971,0 12962,743 18038,2226 5074,1483 9253,3588 12516,6346 3294,2761 5699,6083 7271,9999 1542,3919 2343,8308 2343,13172 0,3978 -591,7714 -1780,11218 -1189,3467 -2910,6585 -5135,9374 -2223,2789 -4953,5161 -8216,7179 -3235,1987 -6910,3498 -11036,4566 981,625 1901,1337 2789,2105 861,804 1690,1721 2523,2851l30675 45184 -14094 0c-2699,0 -4835,-1068 -6346,-3204l-27028 -40673c-858,-1278 -1805,-2195 -2820,-2758 -1006,-535 -2520,-835 -4563,-835l-10593 0zm0 -11540l14862 0c4151,0 7835,-533 10977,-1601 3173,-1099 5814,-2610 7978,-4566 2136,-1990 3742,-4331 4810,-7089 1068,-2758 1601,-5788 1601,-9079 0,-13618 -8247,-20443 -24771,-20443l-15456 0 0 42778zm187644 -55208l0 12875 -50851 0 0 37469 40942 0 0 12432 -40942 0 0 38565 50938 0 -87 12878 -66751 0 0 -114219 66751 0zm150800 103180c-5578,4126 -11515,7182 -17772,9197 -6290,2049 -13113,3058 -20471,3058 -8872,0 -16880,-1427 -24028,-4272 -7182,-2817 -13262,-6826 -18307,-11927 -5043,-5130 -8931,-11271 -11658,-18422 -2730,-7179 -4065,-15072 -4065,-23706 0,-8690 1303,-16614 3947,-23762 2641,-7151 6408,-13292 11302,-18422 4894,-5133 10798,-9110 17772,-11958 6941,-2845 14744,-4272 23375,-4272 4392,0 8488,359 12224,1009 3737,681 7179,1631 10383,2879 3173,1247 6111,2758 8810,4569 2699,1780 5194,3798 7535,5993l-4451 7120c-678,1158 -1631,1870 -2786,2164 -1155,300 -2402,31 -3739,-774 -1331,-768 -2789,-1657 -4390,-2727 -1573,-1099 -3467,-2105 -5662,-3055 -2226,-947 -4841,-1780 -7835,-2464 -3027,-709 -6585,-1068 -10711,-1068 -6024,0 -11482,1068 -16376,3148 -4894,2077 -9046,5071 -12519,8956 -3442,3857 -6083,8578 -7952,14125 -1836,5519 -2758,11717 -2758,18540 0,7120 950,13528 2907,19165 1931,5668 4715,10444 8336,14360 3619,3885 7980,6882 13085,8931 5102,2074 10795,3083 17116,3083 4866,0 9228,-563 13023,-1690 3826,-1130 7594,-2699 11305,-4718l0 -25040 -16404 0c-1074,0 -1901,-294 -2526,-889 -653,-563 -978,-1275 -978,-2164l0 -8931 34268 0 0 43964zm106622 -1480c4569,0 8662,-804 12283,-2374 3619,-1603 6677,-3829 9166,-6708 2489,-2873 4390,-6285 5699,-10203 1301,-3947 1957,-8306 1957,-13051l0 -69363 15840 0 0 69363c0,6615 -1068,12723 -3145,18332 -2074,5637 -5043,10501 -8900,14627 -3857,4093 -8572,7325 -14119,9671 -5578,2343 -11840,3532 -18781,3532 -6971,0 -13203,-1189 -18750,-3532 -5517,-2346 -10234,-5578 -14119,-9671 -3857,-4126 -6856,-8990 -8931,-14627 -2105,-5609 -3145,-11717 -3145,-18332l0 -69363 15812 0 0 69274c0,4746 653,9105 1959,13082 1303,3978 3204,7389 5696,10262 2492,2879 5547,5104 9163,6708 3622,1570 7745,2374 12314,2374zm125165 -774l44054 0 0 13292 -59897 0 0 -114219 15843 0 0 100926zm189603 13292l-12252 0c-1396,0 -2495,-356 -3353,-1040 -830,-712 -1483,-1570 -1957,-2610l-9732 -27471 -47112 0 -9640 27381c-359,978 -1012,1839 -1959,2610 -947,743 -2105,1130 -3411,1130l-12280 0 42868 -114219 16076 0 42753 114219zm-70398 -42425l39132 0 -16171 -45952c-594,-1399 -1158,-3030 -1752,-4897 -594,-1839 -1127,-3826 -1659,-5990 -566,2195 -1158,4241 -1724,6080 -591,1867 -1127,3498 -1659,4866l-16166 45893zm195922 -71794l0 13234 -33315 0 0 100985 -15905 0 0 -100985 -33374 0 0 -13234 82594 0zm153911 57108c0,8575 -1275,16438 -3795,23557 -2526,7120 -6083,13262 -10683,18425 -4594,5158 -10145,9166 -16614,12045 -6436,2873 -13618,4300 -21506,4300 -7804,0 -14983,-1427 -21450,-4300 -6500,-2879 -12073,-6887 -16704,-12045 -4631,-5163 -8216,-11305 -10767,-18425 -2554,-7120 -3826,-14983 -3826,-23557 0,-8516 1273,-16345 3826,-23493 2551,-7182 6136,-13351 10767,-18515 4631,-5191 10203,-9228 16704,-12107 6467,-2842 13646,-4300 21450,-4300 7888,0 15070,1458 21506,4300 6470,2879 12020,6915 16614,12107 4600,5163 8157,11333 10683,18515 2520,7148 3795,14977 3795,23493zm-16168 0c0,-6941 -861,-13200 -2582,-18719 -1690,-5547 -4123,-10234 -7299,-14089 -3142,-3857 -6969,-6798 -11451,-8872 -4510,-2046 -9522,-3089 -15098,-3089 -5547,0 -10593,1043 -15072,3089 -4479,2074 -8336,5015 -11510,8872 -3204,3854 -5637,8541 -7358,14089 -1693,5519 -2551,11779 -2551,18719 0,6971 858,13203 2551,18750 1721,5519 4154,10206 7358,14060 3173,3857 7030,6798 11510,8841 4479,2018 9525,3030 15072,3030 5575,0 10587,-1012 15098,-3030 4482,-2043 8308,-4984 11451,-8841 3176,-3854 5609,-8541 7299,-14060 1721,-5547 2582,-11779 2582,-18750zm-7030 -91519l-27204 24090c-891,737 -1721,1211 -2492,1390 -771,151 -1752,241 -2910,241l-10946 0 19109 -22938c533,-589 1037,-1065 1480,-1421 477,-384 978,-684 1514,-889 563,-210 1158,-328 1839,-390 656,-59 1455,-84 2371,-84l17239 0zm98286 101159l0 47471 -15812 0 0 -114219 31269 0c6971,0 12962,743 18035,2226 5076,1483 9256,3588 12519,6346 3294,2761 5699,6083 7271,9999 1542,3919 2343,8308 2343,13172 0,3978 -594,7714 -1780,11218 -1189,3467 -2910,6585 -5135,9374 -2226,2789 -4953,5161 -8216,7179 -3235,1987 -6913,3498 -11036,4566 981,625 1901,1337 2786,2105 863,804 1693,1721 2526,2851l30675 45184 -14094 0c-2699,0 -4835,-1068 -6346,-3204l-27028 -40673c-858,-1278 -1808,-2195 -2820,-2758 -1006,-535 -2520,-835 -4566,-835l-10590 0zm0 -11540l14862 0c4151,0 7835,-533 10977,-1601 3173,-1099 5814,-2610 7978,-4566 2136,-1990 3742,-4331 4810,-7089 1068,-2758 1601,-5788 1601,-9079 0,-13618 -8247,-20443 -24771,-20443l-15456 0 0 42778zm138603 59011l-15810 0 0 -114219 15810 0 0 114219zm157146 0l-12252 0c-1399,0 -2495,-356 -3353,-1040 -830,-712 -1483,-1570 -1957,-2610l-9735 -27471 -47109 0 -9640 27381c-359,978 -1012,1839 -1959,2610 -950,743 -2108,1130 -3414,1130l-12278 0 42868 -114219 16076 0 42753 114219zm-70400 -42425l39132 0 -16168 -45952c-594,-1399 -1158,-3030 -1752,-4897 -594,-1839 -1127,-3826 -1662,-5990 -563,2195 -1158,4241 -1721,6080 -594,1867 -1127,3498 -1662,4866l-16166 45893z"/>
  <path fill="#666666" fill-rule="nonzero" d="M1253190 830854l0 -255928 48180 0 0 255928 -48180 0zm17604 -101529l0 -46498 131085 0 0 46498 -131085 0zm0 -107898l0 -46501 150491 0 0 46501 -150491 0zm180353 209427l0 -182691 51723 0 0 182691 -51723 0zm102791 -131808c-2346,-2341 -5228,-4146 -8592,-5287 -3423,-1200 -7392,-1800 -11838,-1800 -9732,0 -17242,3184 -22588,9430 -5348,6310 -8051,15019 -8051,26136l-3664 -47521c5046,-10756 11535,-19227 19527,-25354 7986,-6066 16819,-9133 26613,-9133 7510,0 14296,1203 20485,3608 6128,2399 11594,5948 16281,10629l-28174 39291zm151576 131808l0 -115825c0,-8412 -2769,-14960 -8353,-19524 -5587,-4569 -13578,-6851 -24028,-6851 -6792,0 -13578,1082 -20250,3243 -6666,2164 -12614,5289 -17783,9430l-29915 -29436c7389,-8289 17057,-14775 28953,-19403 11899,-4628 25113,-6971 39712,-6971 23911,0 42476,5948 55692,17783 13214,11838 19826,28597 19826,50168l0 117386 -43855 0zm-50891 2646c-19465,0 -34064,-4628 -43796,-13940 -9732,-9250 -14599,-23429 -14599,-42535 0,-18201 5407,-31779 16281,-40791 10814,-8953 27101,-13458 48847,-13458l45716 0 2464 36769 -48003 0c-7325,0 -12732,1441 -16398,4264 -3605,2823 -5466,7210 -5466,13217 0,5948 2282,10397 6910,13278 4563,2882 11473,4266 20723,4266 12799,0 22349,-1444 28718,-4387 6310,-2946 9494,-7510 9494,-13699l3720 26557c-720,6907 -3843,12676 -9371,17180 -5525,4507 -12255,7871 -20303,10032 -8051,2164 -16345,3246 -24937,3246zm142205 -2646l0 -182691 48242 0 0 182691 -48242 0zm105613 0l0 -110721c0,-9012 -2523,-15978 -7568,-20844 -5046,-4866 -12317,-7330 -21806,-7330 -9074,0 -15983,2523 -20791,7510 -4805,4984 -7207,12014 -7207,21026l-3725 -40491c5287,-10994 11717,-19527 19285,-25534 7571,-5945 17421,-8953 29494,-8953 19227,0 34125,6489 44699,19465 10573,12978 15860,31302 15860,54972l0 110900 -48242 0zm173026 2646c-26136,0 -46439,-7392 -60859,-22108 -14481,-14719 -21688,-35569 -21688,-62543l0 -19524c0,-26792 7207,-47401 21688,-61999 14419,-14534 34722,-21808 60859,-21808 15016,0 28592,2526 40671,7571 12076,5046 21747,12255 29015,21626l0 0 -31117 30279 0 0c-4325,-4081 -9553,-7266 -15560,-9553 -6069,-2282 -12376,-3481 -18924,-3481 -12194,0 -21688,3302 -28356,9791 -6671,6486 -10032,15681 -10032,27574l0 19524c0,12199 3361,21629 10032,28241 6669,6607 16163,9971 28356,9971 6548,0 12855,-1261 18924,-3725 6007,-2461 11235,-6007 15560,-10573l0 0 31117 32020 0 0c-7148,9191 -16763,16222 -28895,21206 -12199,4987 -25775,7512 -40791,7512zm99606 -210330l0 -48245 48242 0 0 48245 -48242 0zm0 207683l0 -182691 48242 0 0 182691 -48242 0zm162985 2646c-16398,0 -32020,-2223 -46919,-6610 -14837,-4384 -27457,-10515 -37909,-18383l0 0 29738 -37127 0 0c8830,5645 18021,9971 27636,13035 9612,3008 18803,4569 27454,4569 11297,0 20006,-1264 26251,-3784 6192,-2526 9315,-6013 9315,-10517 0,-5346 -2161,-9071 -6428,-11050 -4266,-1985 -9850,-3310 -16822,-3969 -6910,-659 -14240,-1502 -21988,-2584 -7874,-1018 -15622,-2282 -23311,-3784 -7689,-1438 -14716,-3846 -21026,-7207 -6369,-3305 -11414,-8351 -15140,-15140 -3784,-6727 -5651,-15919 -5651,-27515 0,-18445 6554,-32682 19529,-42776 13037,-10094 31479,-15140 55269,-15140 13999,0 27754,2043 41273,6192 13576,4081 25713,9912 36345,17421l0 0 -28656 35025 0 0c-7989,-4510 -16342,-7933 -24993,-10397 -8709,-2461 -17060,-3725 -24990,-3725 -9732,0 -17304,1082 -22708,3243 -5407,2228 -8112,5348 -8112,9435 0,3543 1861,6186 5645,7933 3725,1741 8650,2999 14781,3784 6069,779 12676,1559 19703,2399 8112,903 16222,2043 24452,3423 8233,1326 15742,3787 22649,7274 6851,3540 12376,8889 16583,16037 4266,7154 6369,17004 6369,29559 0,19106 -6851,33943 -20488,44519 -13696,10571 -32982,15860 -57854,15860zm194290 0c-26134,0 -46439,-7392 -60859,-22108 -14478,-14719 -21688,-35569 -21688,-62543l0 -19524c0,-26792 7210,-47401 21688,-61999 14419,-14534 34725,-21808 60859,-21808 15016,0 28595,2526 40673,7571 12073,5046 21747,12255 29012,21626l0 0 -31117 30279 0 0c-4325,-4081 -9553,-7266 -15560,-9553 -6066,-2282 -12376,-3481 -18924,-3481 -12194,0 -21688,3302 -28354,9791 -6671,6486 -10035,15681 -10035,27574l0 19524c0,12199 3364,21629 10035,28241 6666,6607 16160,9971 28354,9971 6548,0 12858,-1261 18924,-3725 6007,-2461 11235,-6007 15560,-10573l0 0 31117 32020 0 0c-7148,9191 -16760,16222 -28895,21206 -12196,4987 -25775,7512 -40791,7512zm175846 0c-24993,0 -44396,-6971 -58156,-20850 -13817,-13934 -20726,-33464 -20726,-58692l0 -29738c0,-24995 6910,-44396 20726,-58098 13761,-13755 33164,-20606 58156,-20606 24990,0 44396,6851 58151,20606 13819,13702 20670,33102 20670,58098l0 30279c0,25049 -6851,44514 -20670,58333 -13755,13758 -33161,20667 -58151,20667zm0 -46439c9612,0 17119,-2884 22526,-8592 5404,-5645 8109,-13696 8109,-23970l0 -30279c0,-10215 -2705,-18145 -8109,-23790 -5407,-5651 -12914,-8471 -22526,-8471 -9732,0 -17304,2820 -22649,8471 -5348,5645 -7992,13576 -7992,23790l0 30279c0,10273 2643,18324 7992,23970 5346,5707 12917,8592 22649,8592zm223185 43793l0 -255928 48180 0 0 255928 -48180 0zm21450 0l0 -46439 149948 0 0 46439 -149948 0zm286505 0l0 -182691 48062 0 0 182691 -48062 0zm-56654 -182691l0 111079c0,8774 2461,15619 7451,20485 4987,4866 12014,7333 21088,7333 9009,0 15978,-2526 20844,-7512 4866,-4984 7271,-12132 7271,-21388l2461 39950c-3061,9015 -8409,17183 -16101,24454 -7689,7269 -17601,10935 -29797,10935 -19644,0 -34784,-6369 -45419,-18986 -10694,-12679 -16037,-30520 -16037,-53528l0 -112823 48239 0zm229495 185337c-26136,0 -46439,-7392 -60859,-22108 -14478,-14719 -21688,-35569 -21688,-62543l0 -19524c0,-26792 7210,-47401 21688,-61999 14419,-14534 34722,-21808 60859,-21808 15016,0 28595,2526 40671,7571 12076,5046 21749,12255 29015,21626l0 0 -31117 30279 0 0c-4325,-4081 -9553,-7266 -15560,-9553 -6066,-2282 -12376,-3481 -18924,-3481 -12194,0 -21688,3302 -28354,9791 -6671,6486 -10035,15681 -10035,27574l0 19524c0,12199 3364,21629 10035,28241 6666,6607 16160,9971 28354,9971 6548,0 12858,-1261 18924,-3725 6007,-2461 11235,-6007 15560,-10573l0 0 31117 32020 0 0c-7148,9191 -16760,16222 -28895,21206 -12196,4987 -25775,7512 -40791,7512zm180591 0c-26557,0 -47104,-7148 -61702,-21391 -14599,-14237 -21926,-34420 -21926,-60438l0 -20606c0,-27213 7030,-48301 21026,-63199 14060,-14899 33822,-22349 59418,-22349 24149,0 42893,8894 56048,26675 13220,17783 19826,42778 19826,75037l0 12014 -124958 0 0 -32561 80923 0 -482 -4266c-1323,-10453 -4628,-18562 -9856,-24331 -5281,-5825 -12435,-8709 -21503,-8709 -11597,0 -20606,3425 -27036,10332 -6369,6969 -9553,16760 -9553,29438l0 23190c0,12437 3484,22108 10453,28895 6969,6792 16760,10215 29321,10215 6425,0 12852,-1141 19162,-3423 6369,-2282 12073,-5589 17242,-9791l0 0 31541 27992 0 0c-9491,8650 -20185,15381 -32020,20129 -11896,4743 -23852,7148 -35925,7148zm114928 -2646l0 -182691 48242 0 0 182691 -48242 0zm105613 0l0 -110721c0,-9012 -2526,-15978 -7568,-20844 -5046,-4866 -12317,-7330 -21808,-7330 -9071,0 -15981,2523 -20788,7510 -4807,4984 -7207,12014 -7207,21026l-3725 -40491c5287,-10994 11714,-19527 19285,-25534 7568,-5945 17421,-8953 29494,-8953 19227,0 34122,6489 44699,19465 10571,12978 15860,31302 15860,54972l0 110900 -48242 0zm196275 0l0 -115825c0,-8412 -2767,-14960 -8353,-19524 -5587,-4569 -13578,-6851 -24028,-6851 -6792,0 -13578,1082 -20250,3243 -6666,2164 -12614,5289 -17783,9430l-29915 -29436c7389,-8289 17060,-14775 28953,-19403 11899,-4628 25116,-6971 39715,-6971 23908,0 42476,5948 55690,17783 13214,11838 19826,28597 19826,50168l0 117386 -43855 0zm-50888 2646c-19465,0 -34064,-4628 -43796,-13940 -9732,-9250 -14599,-23429 -14599,-42535 0,-18201 5407,-31779 16281,-40791 10812,-8953 27098,-13458 48844,-13458l45716 0 2464 36769 -48001 0c-7327,0 -12735,1441 -16401,4264 -3605,2823 -5466,7210 -5466,13217 0,5948 2282,10397 6910,13278 4563,2882 11473,4266 20726,4266 12796,0 22347,-1444 28715,-4387 6310,-2946 9494,-7510 9494,-13699l3720 26557c-718,6907 -3843,12676 -9371,17180 -5525,4507 -12255,7871 -20303,10032 -8051,2164 -16342,3246 -24934,3246z"/>
 </g>
</svg>
